<svg width="35" height="35" viewBox="0 0 35 35" fill="none" xmlns="http://www.w3.org/2000/svg">
<g clip-path="url(#clip0)">
<path d="M33.8373 11.4512L19.8855 4.6356C18.6827 4.03423 16.638 4.03423 15.4353 4.6356L1.16266 11.4512C0.160367 11.9323 0 12.6138 0 12.9747C0 13.3355 0.160367 13.977 1.16266 14.4981L2.32531 15.0594V21.4741C1.60367 21.7547 1.08247 22.4764 1.08247 23.2782C1.08247 24.08 1.60367 24.8017 2.28522 25.0823L0.4811 30.8154H5.53265L3.72852 25.0823C4.45017 24.8017 4.93127 24.08 4.93127 23.2782C4.93127 22.4363 4.41008 21.7547 3.68843 21.4741V15.741L5.81329 16.7834V25.1224C5.81329 25.2427 5.85338 25.363 5.93356 25.4833C6.13402 25.7238 9.86254 30.8154 17.48 30.8154C25.0974 30.8154 28.8259 25.6837 28.9863 25.4833C29.0664 25.363 29.1065 25.2427 29.1065 25.1224V16.8235L33.8373 14.4981C34.8396 14.017 35 13.3355 35 12.9747C34.9599 12.6138 34.8396 11.9323 33.8373 11.4512ZM27.8236 24.922C27.1821 25.7238 23.7342 29.5726 17.48 29.5726C11.2257 29.5726 7.77778 25.7238 7.13631 24.922V17.3447L15.4353 21.3137C16.0367 21.5944 16.8385 21.7547 17.6403 21.7547C18.4822 21.7547 19.2841 21.5944 19.8855 21.2736L27.8236 17.3847V24.922ZM33.2761 13.3756L28.4651 15.741C28.2646 15.741 28.1042 15.8212 28.0241 15.9815L19.3242 20.1912C18.4822 20.6322 16.8385 20.6322 15.9565 20.1912L5.252 15.0594L17.5601 13.6161C17.921 13.576 18.1615 13.2553 18.1214 12.9346C18.0813 12.5737 17.7606 12.3332 17.4399 12.3733L3.16724 14.0571L1.72394 13.3756C1.36312 13.2152 1.28293 13.0148 1.28293 13.0148C1.28293 12.9747 1.36312 12.8143 1.72394 12.6539L15.9966 5.79826C16.4376 5.5978 17.0389 5.47753 17.6403 5.47753C18.2818 5.47753 18.9233 5.5978 19.3242 5.79826L33.2761 12.6138C33.6369 12.7742 33.7171 12.9346 33.7171 13.0148C33.7171 13.0148 33.5968 13.2152 33.2761 13.3756Z" fill="#A5E985"/>
</g>
<defs>
<clipPath id="clip0">
<rect width="35" height="35" fill="white"/>
</clipPath>
</defs>
</svg>
