<svg width="124" height="146" viewBox="0 0 124 146" fill="none" xmlns="http://www.w3.org/2000/svg">
<circle cx="59.5" cy="59.5" r="59" stroke="#838383"/>
<path d="M113.739 94.638C114.221 95.1312 114.642 95.6659 114.997 96.242L114.571 96.5044C114.739 96.7772 114.892 97.0599 115.028 97.3524C115.165 97.6449 115.284 97.9434 115.385 98.2476L115.859 98.09C116.073 98.7322 116.212 99.398 116.281 100.084L115.783 100.134C115.846 100.762 115.847 101.411 115.786 102.078L116.284 102.123C116.225 102.78 116.109 103.452 115.938 104.134L115.453 104.013C115.298 104.631 115.097 105.26 114.85 105.899L115.317 106.079C115.079 106.696 114.8 107.319 114.483 107.947L114.037 107.722C113.745 108.298 113.419 108.88 113.061 109.466L113.487 109.727C113.14 110.293 112.764 110.861 112.358 111.43L111.951 111.14C111.571 111.674 111.165 112.209 110.734 112.745L111.124 113.058C110.706 113.578 110.264 114.097 109.801 114.616L109.428 114.283C108.988 114.775 108.528 115.266 108.048 115.755L108.405 116.105C107.936 116.584 107.448 117.061 106.943 117.536L106.6 117.171C106.116 117.626 105.616 118.078 105.099 118.527L105.427 118.905C104.92 119.345 104.399 119.782 103.862 120.216L103.548 119.827C103.029 120.247 102.497 120.663 101.951 121.075L102.252 121.474C101.715 121.88 101.164 122.283 100.602 122.681L100.313 122.272C99.7662 122.659 99.2077 123.041 98.6378 123.419L98.9141 123.836C98.3522 124.209 97.7794 124.577 97.1961 124.94L96.9319 124.515C96.363 124.869 95.784 125.219 95.1952 125.563L95.4475 125.995C94.8644 126.335 94.2719 126.671 93.6703 127.001L93.4297 126.563C92.841 126.886 92.2435 127.204 91.6376 127.516L91.8664 127.96C91.2651 128.27 90.6555 128.574 90.038 128.872L89.8207 128.422C89.516 128.569 89.2094 128.714 88.9009 128.858C88.5924 129.002 88.284 129.143 87.9757 129.283L88.1813 129.738C87.5563 130.02 86.9317 130.292 86.3082 130.554L86.1145 130.093C85.4861 130.357 84.8588 130.611 84.2331 130.855L84.4145 131.321C83.775 131.57 83.1371 131.808 82.5014 132.036L82.3326 131.566C81.6906 131.796 81.051 132.015 80.4142 132.224L80.5698 132.699C79.9169 132.913 79.2668 133.116 78.6204 133.307L78.4784 132.828C77.8227 133.022 77.1708 133.204 76.5234 133.375L76.6509 133.858C75.9844 134.034 75.3226 134.197 74.6661 134.349L74.5538 133.861C73.8871 134.015 73.2261 134.156 72.5716 134.284L72.6676 134.774C71.9906 134.907 71.3204 135.026 70.6577 135.131L70.5791 134.637C69.9027 134.745 69.2345 134.838 68.5753 134.918L68.635 135.414C67.9464 135.497 67.2675 135.564 66.599 135.616L66.5601 135.118C65.8765 135.171 65.2044 135.208 64.545 135.229L64.5609 135.729C63.8659 135.751 63.1842 135.756 62.5173 135.742L62.5272 135.243C61.8398 135.229 61.1689 135.196 60.5159 135.145L60.4765 135.643C59.7799 135.588 59.1026 135.512 58.4462 135.414L58.5198 134.919C57.8406 134.818 57.1855 134.694 56.5564 134.547L56.4427 135.034C55.7574 134.874 55.1008 134.688 54.4753 134.474L54.6369 134.001C53.9885 133.779 53.3767 133.529 52.8038 133.251L52.5851 133.7C51.9526 133.393 51.3635 133.051 50.8213 132.674L51.1065 132.264C50.5566 131.882 50.0596 131.464 49.6185 131.013L49.2608 131.362C48.7792 130.869 48.3586 130.334 48.0034 129.758L48.429 129.496C48.2608 129.223 48.1082 128.94 47.9717 128.648C47.8352 128.355 47.7165 128.056 47.6154 127.752L47.141 127.91C46.9275 127.268 46.7879 126.602 46.7192 125.916L47.2167 125.866C47.1537 125.238 47.1532 124.589 47.2136 123.922L46.7157 123.877C46.7753 123.22 46.8915 122.548 47.0621 121.866L47.5472 121.987C47.7017 121.369 47.9029 120.74 48.1497 120.101L47.6832 119.92C47.9213 119.304 48.1998 118.681 48.5174 118.053L48.9636 118.278C49.2551 117.702 49.5808 117.12 49.9396 116.534L49.5133 116.273C49.86 115.707 50.2365 115.139 50.6417 114.57L51.0491 114.86C51.4289 114.326 51.8348 113.791 52.2659 113.255L51.8763 112.942C52.2946 112.422 52.7358 111.903 53.1992 111.384L53.572 111.717C54.0117 111.225 54.4718 110.734 54.9518 110.244L54.5947 109.894C55.064 109.416 55.5518 108.939 56.0575 108.464L56.3996 108.829C56.8837 108.374 57.3845 107.922 57.9015 107.473L57.5735 107.095C58.0799 106.655 58.6016 106.218 59.1378 105.784L59.4523 106.173C59.9708 105.753 60.5033 105.337 61.0492 104.925L60.7478 104.526C61.2854 104.12 61.8358 103.717 62.3986 103.319L62.6872 103.728C63.2339 103.341 63.7924 102.959 64.3623 102.581L64.086 102.164C64.6479 101.791 65.2207 101.423 65.804 101.06L66.0683 101.485C66.6371 101.131 67.2161 100.781 67.8049 100.437L67.5526 100.005C68.1357 99.6645 68.7282 99.3288 69.3299 98.9986L69.5704 99.437C70.1591 99.1139 70.7566 98.7961 71.3626 98.4842L71.1337 98.0396C71.7351 97.73 72.3447 97.426 72.9622 97.1281L73.1794 97.5784C73.4841 97.4314 73.7907 97.2859 74.0992 97.1419C74.4077 96.998 74.7161 96.8564 75.0245 96.7173L74.8189 96.2616C75.4438 95.9796 76.0684 95.7076 76.692 95.4456L76.8857 95.9065C77.514 95.6425 78.1413 95.3886 78.7671 95.1449L78.5856 94.679C79.2251 94.43 79.863 94.1914 80.4988 93.9635L80.6676 94.4341C81.3095 94.2039 81.9492 93.9845 82.586 93.7759L82.4303 93.3007C83.0833 93.0869 83.7333 92.8843 84.3798 92.6929L84.5217 93.1723C85.1774 92.9783 85.8293 92.7959 86.4767 92.6252L86.3492 92.1417C87.0157 91.966 87.6775 91.8025 88.3341 91.6513L88.4463 92.1385C89.113 91.985 89.774 91.8442 90.4285 91.7162L90.3326 91.2255C91.0095 91.0931 91.6797 90.9742 92.3425 90.8687L92.421 91.3625C93.0974 91.2549 93.7657 91.1615 94.4248 91.0823L94.3652 90.5859C95.0537 90.5032 95.7327 90.4357 96.4011 90.3836L96.44 90.882C97.1236 90.8287 97.7957 90.7915 98.4551 90.7705L98.4392 90.2708C99.1343 90.2486 99.8159 90.2442 100.483 90.2574L100.473 90.7573C101.16 90.771 101.831 90.8036 102.484 90.8553L102.524 90.3568C103.22 90.4119 103.898 90.4883 104.554 90.5859L104.48 91.0805C105.16 91.1815 105.815 91.3056 106.444 91.4525L106.557 90.9655C107.243 91.1255 107.899 91.3123 108.525 91.5259L108.363 91.9991C109.012 92.2205 109.623 92.4707 110.196 92.7492L110.415 92.2995C111.048 92.6071 111.637 92.9491 112.179 93.3257L111.894 93.7364C112.444 94.1183 112.94 94.5355 113.382 94.9873L113.739 94.638Z" stroke="#A5E985" stroke-dasharray="2 2"/>
</svg>
