<svg width="23" height="23" viewBox="0 0 23 23" fill="none" xmlns="http://www.w3.org/2000/svg">
<g clip-path="url(#clip0)">
<path d="M22.5038 10.49C22.5992 10.4631 22.6976 10.444 22.8018 10.444C22.8669 10.444 22.931 10.4504 22.9922 10.4611C22.9912 10.4484 22.9902 10.4347 22.9892 10.422C22.9241 10.4342 22.8581 10.4416 22.7905 10.4416C22.6883 10.4416 22.5909 10.4235 22.496 10.3975C22.0237 10.2674 21.6748 9.83967 21.6748 9.32635C21.6748 8.96424 21.8491 8.64519 22.1172 8.44162C22.2484 8.34131 22.4015 8.27035 22.5694 8.23561C22.562 8.21603 22.5581 8.19597 22.5522 8.1764C22.2684 8.10691 22.0267 7.93173 21.8735 7.69195C21.7991 7.57402 21.7438 7.44092 21.7189 7.29803C21.7067 7.23197 21.6978 7.16444 21.6978 7.09447C21.6978 6.86448 21.7732 6.65602 21.8936 6.47985C21.7409 6.16667 21.5765 5.8623 21.3969 5.56625C21.2848 5.6881 21.1469 5.78646 20.9908 5.8486C21.0348 5.922 21.0769 5.99736 21.1194 6.07174C21.462 6.2621 21.6988 6.62372 21.6988 7.04357C21.6988 7.09887 21.69 7.15221 21.6827 7.20506C21.6034 7.7448 21.1434 8.15927 20.5826 8.15927C19.967 8.15927 19.4674 7.65965 19.4674 7.04357C19.4674 6.42749 19.967 5.92837 20.5826 5.92837C19.967 5.92837 19.4674 5.42875 19.4674 4.81316C19.4674 4.5494 19.5629 4.3106 19.716 4.11927C19.8193 3.9896 19.9509 3.8839 20.1011 3.81001C19.8697 3.55066 19.625 3.30256 19.371 3.06572C19.2962 3.21497 19.1866 3.34465 19.0549 3.44643C18.8665 3.59225 18.6331 3.68229 18.3747 3.68229C17.7591 3.68229 17.26 3.18267 17.26 2.56659C17.26 2.41245 17.2908 2.26516 17.3496 2.13108C17.4156 1.97645 17.5169 1.84188 17.6422 1.73227C17.3466 1.54681 17.0427 1.37505 16.7315 1.21552C16.5583 1.32807 16.3557 1.39805 16.134 1.39805C16.0616 1.39805 15.9916 1.38973 15.9226 1.37652C15.771 1.34765 15.6295 1.28892 15.5062 1.20525C15.2738 1.04719 15.1084 0.802519 15.0472 0.519191C15.0311 0.513319 15.0139 0.507447 14.9963 0.502064C14.9743 0.670397 14.9249 0.830412 14.8363 0.966448C14.6371 1.27229 14.2941 1.47536 13.9022 1.47536C13.3433 1.47536 12.8863 1.06481 12.8041 0.530446C12.7948 0.474171 12.787 0.418387 12.787 0.359666C12.787 0.248096 12.808 0.142888 12.8378 0.0411046C12.807 0.0376793 12.7767 0.0327858 12.7458 0.0298498C12.7703 0.119889 12.786 0.212374 12.786 0.309263C12.786 0.383154 12.7772 0.455576 12.764 0.525063C12.6627 1.03789 12.213 1.42447 11.6713 1.42447C11.1178 1.42447 10.6617 1.02125 10.5742 0.493256C10.5639 0.433067 10.5551 0.372388 10.5551 0.309263C10.5551 0.20063 10.5761 0.0983575 10.605 0C10.5668 0.00293605 10.5286 0.00538275 10.4905 0.00880814C10.5286 0.120867 10.5556 0.238798 10.5556 0.364559C10.5556 0.409578 10.5477 0.45264 10.5423 0.496192C10.4763 1.04964 10.0109 1.48026 9.44035 1.48026C9.01218 1.48026 8.64419 1.23608 8.45775 0.881792C8.38239 0.739394 8.33737 0.57889 8.33052 0.407621C8.32563 0.409089 8.32074 0.410557 8.31633 0.411536C8.29627 0.630271 8.21504 0.829922 8.08683 0.994341C7.88327 1.25712 7.56764 1.42936 7.20944 1.42936C7.14142 1.42936 7.07585 1.42056 7.01175 1.4093C6.79693 1.37064 6.60755 1.26641 6.45439 1.12353C6.13142 1.28109 5.8158 1.45285 5.50996 1.6388C5.66557 1.7215 5.79867 1.83992 5.89997 1.9833C6.02817 2.16484 6.10549 2.38505 6.10549 2.62482C6.10549 3.24139 5.60587 3.74052 4.9893 3.74052C4.62817 3.74052 4.31059 3.56632 4.10702 3.30012C4.00279 3.16408 3.92792 3.00455 3.89416 2.82986C3.87018 2.8509 3.84522 2.87096 3.82174 2.89249C3.71261 3.25852 3.42341 3.54332 3.05445 3.6451C3.03047 3.67104 3.00454 3.69599 2.98105 3.72193C3.15428 3.76254 3.31282 3.84133 3.44543 3.95192C3.6901 4.15695 3.84963 4.46132 3.84963 4.80582C3.84963 5.4219 3.3505 5.92103 2.73442 5.92103C3.35099 5.92103 3.85061 6.42064 3.85061 7.03623C3.85061 7.6528 3.35099 8.15193 2.73442 8.15193C2.11883 8.15193 1.61921 7.65231 1.61921 7.03623C1.61921 6.42015 2.11932 5.92103 2.73442 5.92103C2.49562 5.92103 2.27493 5.8442 2.0929 5.71599C1.95245 5.61666 1.83599 5.48453 1.7528 5.33235C1.57322 5.61568 1.40586 5.90732 1.25123 6.20631C1.39167 6.3355 1.50177 6.49649 1.56098 6.68293C1.59524 6.79058 1.61921 6.90264 1.61921 7.02155C1.61921 7.44875 1.3765 7.81526 1.02369 8.00317C0.868075 8.08587 0.692891 8.13725 0.503516 8.13725C0.490304 8.13725 0.477581 8.13285 0.464369 8.13187C0.46339 8.1348 0.46339 8.13725 0.462411 8.1397C0.468283 8.1397 0.473666 8.13725 0.479538 8.13725C0.645914 8.13725 0.802503 8.17591 0.943923 8.24148C1.32708 8.41764 1.59475 8.80275 1.59475 9.25295C1.59475 9.85777 1.11226 10.3481 0.510856 10.3647C0.50058 10.3652 0.489814 10.3682 0.479538 10.3682C0.318056 10.3682 0.167828 10.328 0.0293446 10.2659C0.0215151 10.3412 0.0161324 10.4171 0.00928158 10.4929C0.156573 10.421 0.316098 10.3706 0.490793 10.3706C0.497644 10.3706 0.503027 10.3726 0.509877 10.3726C1.11666 10.3828 1.60698 10.8761 1.60698 11.4863C1.60698 12.0965 1.11568 12.5912 0.506941 12.5996C0.502048 12.6 0.496665 12.6015 0.490793 12.6015C0.31512 12.6015 0.154126 12.5506 0.00732422 12.4782C0.0131963 12.5516 0.0176004 12.627 0.0254298 12.7008C0.160977 12.6402 0.309248 12.6015 0.467794 12.6015C0.481006 12.6015 0.493729 12.6054 0.50792 12.6054C1.10443 12.6274 1.583 13.1148 1.583 13.7172C1.583 14.1659 1.31631 14.5501 0.934136 14.7267C0.791738 14.7928 0.635149 14.8319 0.467794 14.8319C0.461922 14.8319 0.458007 14.83 0.452624 14.83C0.453603 14.8329 0.454582 14.8358 0.45556 14.8388C0.471709 14.8378 0.486389 14.8319 0.502537 14.8319C0.687019 14.8319 0.857309 14.8813 1.00998 14.9601C1.37014 15.1451 1.61872 15.5155 1.61872 15.9481C1.61872 16.0749 1.59279 16.1938 1.55364 16.3068C1.4915 16.4903 1.38041 16.6479 1.239 16.7741C1.39363 17.0731 1.56 17.3657 1.73861 17.6495C1.82376 17.4979 1.9412 17.3687 2.08262 17.2718C2.26172 17.1499 2.47752 17.078 2.70995 17.078C3.32652 17.078 3.82516 17.5776 3.82516 18.1942C3.82516 18.5323 3.67151 18.8328 3.43222 19.0373C3.30206 19.1494 3.14547 19.2301 2.97322 19.2727C3.00405 19.306 3.03634 19.3383 3.06766 19.3715C3.39944 19.4807 3.66025 19.7376 3.7728 20.0679C3.80999 20.1011 3.84914 20.1334 3.88633 20.1667C3.93624 20.0008 4.01894 19.8506 4.13296 19.7263C4.33652 19.5037 4.62719 19.3622 4.95211 19.3622C5.56868 19.3622 6.06732 19.8619 6.06732 20.4775C6.06732 20.6791 6.01007 20.8665 5.91612 21.0289C5.83097 21.1782 5.70863 21.3025 5.56721 21.3979C5.83195 21.5569 6.10549 21.7047 6.38344 21.8427C6.52681 21.7008 6.70444 21.5931 6.90899 21.5472C6.98924 21.5286 7.07341 21.5163 7.15953 21.5163C7.54366 21.5163 7.88327 21.7106 8.0839 22.0071C8.19498 22.1706 8.25614 22.3668 8.26642 22.5772C8.27425 22.5797 8.28159 22.5816 8.28942 22.5836C8.30557 22.4138 8.35254 22.2538 8.43573 22.1153C8.62951 21.7884 8.9833 21.5677 9.39044 21.5677C9.94486 21.5677 10.4014 21.9729 10.4885 22.5023C10.4983 22.5616 10.5066 22.6217 10.5066 22.6829C10.5066 22.7911 10.4866 22.8928 10.4577 22.9907C10.4978 22.9951 10.5379 22.9976 10.579 23.0005C10.536 22.884 10.5066 22.7607 10.5066 22.6286C10.5066 22.5865 10.5145 22.5464 10.5189 22.5053C10.581 21.9469 11.0483 21.5129 11.6218 21.5129C12.1875 21.5129 12.6504 21.9357 12.7228 22.4823C12.7287 22.5307 12.7365 22.5777 12.7365 22.6286C12.7365 22.7534 12.7096 22.8694 12.6715 22.9819C12.7072 22.978 12.7434 22.9716 12.7811 22.9692C12.7547 22.8767 12.7365 22.7803 12.7365 22.6795C12.7365 22.6105 12.7458 22.5439 12.7566 22.4779C12.852 21.9582 13.3052 21.5643 13.8518 21.5643C14.2364 21.5643 14.5755 21.7585 14.7771 22.0556C14.8691 22.1901 14.9185 22.3506 14.944 22.518C14.9547 22.5146 14.966 22.5102 14.9768 22.5072C14.9968 22.2812 15.0829 22.0747 15.2175 21.9063C15.4221 21.6519 15.7318 21.487 16.0841 21.487C16.1252 21.487 16.1629 21.4948 16.2021 21.4982C16.4276 21.5232 16.6283 21.6176 16.7927 21.7541C17.0794 21.6059 17.3594 21.4463 17.6309 21.2751C17.5027 21.1684 17.3965 21.0377 17.3266 20.8836C17.261 20.7422 17.2228 20.5871 17.2228 20.4207C17.2228 19.8041 17.7224 19.3055 18.338 19.3055C18.6077 19.3055 18.8514 19.4048 19.0437 19.5634C19.1733 19.6705 19.2766 19.8041 19.3475 19.9573C19.6044 19.7195 19.8501 19.4699 20.0845 19.2096C19.9333 19.1376 19.8007 19.0334 19.6955 18.9037C19.5394 18.7109 19.441 18.4697 19.441 18.2025C19.441 17.5859 19.9406 17.0868 20.5562 17.0868C20.7064 17.0868 20.8488 17.1176 20.9795 17.171C21.1346 17.2351 21.2711 17.3359 21.3812 17.4597C21.553 17.1783 21.7096 16.8872 21.8559 16.5906C21.7566 16.4242 21.6954 16.2314 21.6954 16.0225C21.6954 15.5097 22.0433 15.0834 22.5136 14.9518C22.5214 14.9264 22.5278 14.9009 22.5356 14.8769C22.3692 14.8388 22.2165 14.7649 22.0864 14.6626C21.8285 14.4581 21.6602 14.1459 21.6602 13.7926C21.6602 13.2788 22.0091 12.8511 22.4803 12.7214C22.5747 12.6955 22.6736 12.6764 22.7764 12.6764C22.8454 12.6764 22.9119 12.6847 22.977 12.6964C22.978 12.6852 22.9789 12.6725 22.9809 12.6607C22.9217 12.671 22.8615 12.6764 22.7994 12.6764C22.6922 12.6764 22.5899 12.6563 22.4925 12.6279C22.0262 12.4939 21.6841 12.0691 21.6841 11.5602C21.6866 11.0474 22.0335 10.6207 22.5038 10.49ZM20.5606 8.15976C21.1762 8.15976 21.6753 8.65938 21.6753 9.27546C21.6753 9.89154 21.1757 10.3907 20.5606 10.3907C19.9436 10.3907 19.4444 9.89105 19.4444 9.27546C19.4435 8.65889 19.9436 8.15976 20.5606 8.15976ZM9.42714 17.103C8.81155 17.103 8.31193 16.6033 8.31193 15.9873C8.31193 15.3712 8.81155 14.8725 9.42714 14.8725C10.0437 14.8725 10.5433 15.3722 10.5433 15.9873C10.5428 16.6043 10.0427 17.103 9.42714 17.103ZM10.5193 18.2182C10.5193 18.8347 10.0197 19.3334 9.40414 19.3334C8.78757 19.3334 8.28795 18.8338 8.28795 18.2182C8.28795 17.6016 8.78757 17.103 9.40414 17.103C10.0197 17.103 10.5193 17.6026 10.5193 18.2182ZM3.8374 11.501C3.8374 12.1175 3.33827 12.6167 2.72219 12.6167C2.10611 12.6167 1.60698 12.1171 1.60698 11.501C1.60698 10.8849 2.10611 10.3858 2.72219 10.3858C3.33827 10.3858 3.8374 10.8849 3.8374 11.501ZM3.82565 9.31852C3.82565 8.70195 4.32478 8.20282 4.94086 8.20282C5.55645 8.20282 6.05607 8.70244 6.05607 9.31852C6.05607 9.9346 5.55645 10.4337 4.94086 10.4337C4.32478 10.4337 3.82565 9.9346 3.82565 9.31852ZM4.95309 10.4362C5.56966 10.4362 6.06928 10.9358 6.06928 11.5509C6.06928 12.168 5.56966 12.6666 4.95309 12.6666C4.3375 12.6666 3.83788 12.167 3.83788 11.5509C3.8374 10.9358 4.33701 10.4362 4.95309 10.4362ZM8.31095 4.82931C8.31095 4.21274 8.81057 3.71361 9.42714 3.71361C10.0427 3.71361 10.5423 4.21323 10.5423 4.82931C10.5423 5.44539 10.0427 5.94451 9.42714 5.94451C10.0427 5.94451 10.5423 6.44413 10.5423 7.05972C10.5423 7.67629 10.0427 8.17542 9.42714 8.17542C8.81057 8.17542 8.31095 7.6758 8.31095 7.05972C8.31095 6.44364 8.81057 5.94451 9.42714 5.94451C8.81106 5.94451 8.31095 5.44539 8.31095 4.82931ZM10.5428 4.7745C10.5428 4.15793 11.0424 3.6588 11.658 3.6588C12.2741 3.6588 12.7732 4.15842 12.7732 4.7745C12.7732 5.39058 12.2741 5.88971 11.658 5.88971C12.2741 5.88971 12.7742 6.38932 12.7742 7.00492C12.7742 7.62149 12.2746 8.12061 11.658 8.12061C11.0424 8.12061 10.5428 7.621 10.5428 7.00492C10.5428 6.38884 11.0424 5.88971 11.658 5.88971C11.0424 5.88971 10.5428 5.39058 10.5428 4.7745ZM15.0051 4.74759C15.0051 4.13102 15.5048 3.63189 16.1203 3.63189C16.7369 3.63189 17.2355 4.13151 17.2355 4.74759C17.2355 5.36367 16.7364 5.86279 16.1203 5.86279C16.7369 5.86279 17.2365 6.36241 17.2365 6.978C17.2365 7.59457 16.7369 8.0937 16.1203 8.0937C15.5048 8.0937 15.0051 7.59408 15.0051 6.978C15.0051 6.36192 15.5048 5.86279 16.1203 5.86279C15.5057 5.86279 15.0051 5.36367 15.0051 4.74759ZM9.41539 12.6407C8.7998 12.6407 8.30018 12.141 8.30018 11.525C8.30018 10.9089 8.7998 10.4098 9.41539 10.4098C10.032 10.4098 10.5316 10.9094 10.5316 11.525C10.5311 12.1415 10.0315 12.6407 9.41539 12.6407ZM10.5081 13.7559C10.5081 14.3724 10.0085 14.8711 9.39288 14.8711C8.77631 14.8711 8.2767 14.3715 8.2767 13.7559C8.2767 13.1393 8.77631 12.6407 9.39288 12.6407C10.008 12.6407 10.5081 13.1408 10.5081 13.7559ZM7.18498 12.5903C6.56841 12.5903 6.06977 12.0906 6.06977 11.475C6.06977 10.859 6.5689 10.3598 7.18498 10.3598C7.80106 10.3598 8.30018 10.8595 8.30018 11.475C8.2997 12.0906 7.80057 12.5903 7.18498 12.5903ZM12.7512 9.28769C12.7512 8.67112 13.2508 8.17199 13.8659 8.17199C14.482 8.17199 14.9812 8.67161 14.9812 9.28769C14.9812 9.90377 14.4815 10.4029 13.8659 10.4029C13.2494 10.4029 12.7512 9.90328 12.7512 9.28769ZM12.762 11.4697C12.762 12.0867 12.2629 12.5854 11.6468 12.5854C11.0307 12.5854 10.5316 12.0857 10.5316 11.4697C10.5316 10.8541 11.0307 10.3549 11.6468 10.3549C12.2634 10.3549 12.762 10.8541 12.762 11.4697ZM11.635 10.352C11.0185 10.352 10.5189 9.85239 10.5189 9.2368C10.5189 8.62023 11.0185 8.1211 11.635 8.1211C12.2506 8.1211 12.7502 8.62072 12.7502 9.2368C12.7512 9.85288 12.2506 10.352 11.635 10.352ZM11.6228 12.5858C12.2394 12.5858 12.738 13.0855 12.738 13.7015C12.738 14.3176 12.2389 14.8168 11.6228 14.8168C11.0072 14.8168 10.5076 14.3171 10.5076 13.7015C10.5081 13.085 11.0077 12.5858 11.6228 12.5858ZM11.6585 14.8168C12.2746 14.8168 12.7737 15.3164 12.7737 15.932C12.7737 16.5485 12.2746 17.0472 11.6585 17.0472C11.0425 17.0472 10.5433 16.5476 10.5433 15.932C10.5428 15.3164 11.0415 14.8168 11.6585 14.8168ZM12.738 13.7524C12.738 13.1359 13.2376 12.6372 13.8542 12.6372C14.4698 12.6372 14.9694 13.1368 14.9694 13.7524C14.9694 14.369 14.4698 14.8676 13.8542 14.8676C13.2386 14.8676 12.738 14.3675 12.738 13.7524ZM13.8772 12.6358C13.2616 12.6358 12.762 12.1361 12.762 11.5206C12.762 10.905 13.2616 10.4053 13.8772 10.4053C14.4938 10.4053 14.9934 10.905 14.9934 11.5206C14.9944 12.1371 14.4938 12.6358 13.8772 12.6358ZM16.0851 12.5589C16.7017 12.5589 17.2003 13.0586 17.2003 13.6746C17.2003 14.2907 16.7012 14.7898 16.0851 14.7898C15.4695 14.7898 14.9699 14.2902 14.9699 13.6746C14.9699 13.0586 15.4695 12.5589 16.0851 12.5589ZM16.1091 12.5589C15.4925 12.5589 14.9944 12.0593 14.9944 11.4432C14.9944 10.8272 15.494 10.328 16.1091 10.328C16.7257 10.328 17.2243 10.8276 17.2243 11.4432C17.2243 12.0598 16.7261 12.5589 16.1091 12.5589ZM17.213 9.26078C17.213 8.64421 17.7127 8.14508 18.3282 8.14508C18.9438 8.14508 19.4435 8.6447 19.4435 9.26078C19.4435 9.87686 18.9438 10.376 18.3282 10.376C17.7117 10.376 17.213 9.87686 17.213 9.26078ZM16.0973 10.3256C15.4808 10.3256 14.9812 9.82597 14.9812 9.21038C14.9812 8.59381 15.4808 8.09468 16.0973 8.09468C16.7129 8.09468 17.2125 8.5943 17.2125 9.21038C17.213 9.82597 16.7129 10.3256 16.0973 10.3256ZM13.8899 5.9406C14.506 5.9406 15.0051 6.44022 15.0051 7.05581C15.0051 7.67238 14.5055 8.1715 13.8899 8.1715C13.2734 8.1715 12.7742 7.67189 12.7742 7.05581C12.7742 6.43973 13.2734 5.9406 13.8899 5.9406C13.2734 5.9406 12.7742 5.44098 12.7742 4.82539C12.7742 4.20882 13.2738 3.70969 13.8899 3.70969C14.506 3.70969 15.0051 4.20931 15.0051 4.82539C15.0051 5.44098 14.506 5.9406 13.8899 5.9406ZM9.40365 8.17591C10.0192 8.17591 10.5189 8.67553 10.5189 9.29161C10.5189 9.90769 10.0192 10.4068 9.40365 10.4068C8.78708 10.4068 8.28844 9.9072 8.28844 9.29161C8.28844 8.67553 8.78757 8.17591 9.40365 8.17591ZM7.17323 10.3564C6.55666 10.3564 6.05705 9.8568 6.05705 9.2412C6.05705 8.62463 6.55666 8.12551 7.17323 8.12551C7.78882 8.12551 8.28844 8.62512 8.28844 9.2412C8.28844 9.85728 7.78882 10.3564 7.17323 10.3564ZM4.93009 12.6676C5.54568 12.6676 6.0453 13.1672 6.0453 13.7833C6.0453 14.3993 5.54568 14.898 4.93009 14.898C4.31352 14.898 3.81391 14.3984 3.81391 13.7833C3.81342 13.1667 4.31303 12.6676 4.93009 12.6676ZM4.96484 14.898C5.58141 14.898 6.08102 15.3976 6.08102 16.0132C6.08102 16.6298 5.58141 17.1289 4.96484 17.1289C4.34925 17.1289 3.84963 16.6293 3.84963 16.0132C3.84914 15.3981 4.34925 14.898 4.96484 14.898ZM6.0453 13.706C6.0453 13.0894 6.54492 12.5903 7.16051 12.5903C7.77708 12.5903 8.27572 13.0899 8.27572 13.706C8.27572 14.322 7.77659 14.8212 7.16051 14.8212C6.54492 14.8212 6.0453 14.322 6.0453 13.706ZM7.19623 14.8212C7.8128 14.8212 8.31144 15.3208 8.31144 15.9359C8.31144 16.5529 7.81231 17.0516 7.19623 17.0516C6.58015 17.0516 6.08102 16.552 6.08102 15.9359C6.08053 15.3208 6.57917 14.8212 7.19623 14.8212ZM11.6341 17.0482C12.2506 17.0482 12.7493 17.5478 12.7493 18.1638C12.7493 18.7799 12.2501 19.2791 11.6341 19.2791C11.0185 19.2791 10.5189 18.7794 10.5189 18.1638C10.5193 17.5473 11.0195 17.0482 11.6341 17.0482ZM13.8659 17.0981C14.482 17.0981 14.9812 17.5977 14.9812 18.2138C14.9812 18.8298 14.4815 19.329 13.8659 19.329C13.2494 19.329 12.7502 18.8294 12.7502 18.2138C12.7502 17.5982 13.2494 17.0981 13.8659 17.0981ZM13.8889 17.0981C13.2734 17.0981 12.7742 16.5984 12.7742 15.9829C12.7742 15.3663 13.2738 14.8676 13.8889 14.8676C14.506 14.8676 15.0051 15.3673 15.0051 15.9829C15.0051 16.5994 14.506 17.0981 13.8889 17.0981ZM16.0973 17.0212C16.7139 17.0212 17.2121 17.5209 17.2121 18.1369C17.2121 18.7525 16.7129 19.2517 16.0973 19.2517C15.4818 19.2517 14.9826 18.752 14.9826 18.1369C14.9812 17.5209 15.4818 17.0212 16.0973 17.0212ZM16.1203 17.0212C15.5038 17.0212 15.0051 16.5216 15.0051 15.9055C15.0051 15.2895 15.5048 14.7903 16.1203 14.7903C16.7369 14.7903 17.2355 15.2899 17.2355 15.9055C17.2365 16.5221 16.7369 17.0212 16.1203 17.0212ZM17.2003 13.7255C17.2003 13.109 17.6999 12.6103 18.3165 12.6103C18.9321 12.6103 19.4317 13.1099 19.4317 13.7255C19.4317 14.3421 18.9321 14.8407 18.3165 14.8407C17.7004 14.8407 17.2003 14.3421 17.2003 13.7255ZM18.34 12.6103C17.7244 12.6103 17.2253 12.1107 17.2253 11.4941C17.2253 10.8785 17.7249 10.3794 18.34 10.3794C18.9566 10.3794 19.4557 10.879 19.4557 11.4941C19.4562 12.1102 18.9561 12.6103 18.34 12.6103ZM18.3522 3.68229C18.9683 3.68229 19.4674 4.18191 19.4674 4.79799C19.4674 5.41407 18.9678 5.9132 18.3522 5.9132C18.9683 5.9132 19.4674 6.41281 19.4674 7.0284C19.4674 7.64497 18.9678 8.1441 18.3522 8.1441C17.7357 8.1441 17.2365 7.64448 17.2365 7.0284C17.2365 6.41232 17.7361 5.9132 18.3522 5.9132C17.7357 5.9132 17.2365 5.41358 17.2365 4.79799C17.2365 4.18191 17.7357 3.68229 18.3522 3.68229ZM16.0049 1.41517C16.0523 1.40881 16.0969 1.40098 16.1443 1.40098C16.5705 1.40098 16.9375 1.64321 17.125 1.99504C17.2081 2.15114 17.2595 2.32731 17.2595 2.51619C17.2595 3.13276 16.7604 3.63189 16.1443 3.63189C15.5282 3.63189 15.0291 3.13227 15.0291 2.51619C15.0291 1.94807 15.4553 1.48368 16.0049 1.41517ZM13.9134 1.4783C14.53 1.4783 15.0291 1.97792 15.0291 2.59351C15.0291 3.21008 14.5295 3.7092 13.9134 3.7092C13.2973 3.7092 12.7982 3.20959 12.7982 2.59351C12.7972 1.97743 13.2973 1.4783 13.9134 1.4783ZM11.6825 1.42741C12.2986 1.42741 12.7977 1.92702 12.7977 2.54262C12.7977 3.15919 12.2986 3.65831 11.6825 3.65831C11.0664 3.65831 10.5673 3.1587 10.5673 2.54262C10.5673 1.92702 11.0654 1.42741 11.6825 1.42741ZM9.45062 1.48221C10.0672 1.48221 10.5668 1.98183 10.5668 2.59742C10.5668 3.21399 10.0672 3.71312 9.45062 3.71312C8.83503 3.71312 8.33542 3.2135 8.33542 2.59742C8.33542 1.98183 8.83552 1.48221 9.45062 1.48221ZM7.21972 1.43181C7.83629 1.43181 8.33493 1.93143 8.33493 2.54702C8.33493 3.16359 7.8358 3.66272 7.21972 3.66272C6.60364 3.66272 6.10451 3.1631 6.10451 2.54702C6.105 1.93094 6.60364 1.43181 7.21972 1.43181ZM7.19623 3.66272C7.8128 3.66272 8.31144 4.16233 8.31144 4.77841C8.31144 5.3945 7.81231 5.89362 7.19623 5.89362C7.8128 5.89362 8.31242 6.39324 8.31242 7.00883C8.31242 7.6254 7.8128 8.12453 7.19623 8.12453C6.58064 8.12453 6.08102 7.62491 6.08102 7.00883C6.08102 6.39275 6.58064 5.89362 7.19623 5.89362C6.58064 5.89362 6.08102 5.39401 6.08102 4.77841C6.08053 4.16233 6.58015 3.66272 7.19623 3.66272ZM4.96484 5.97143C4.34827 5.97143 3.84865 5.47181 3.84865 4.85622C3.84865 4.23965 4.34827 3.74052 4.96484 3.74052C5.58043 3.74052 6.08004 4.24014 6.08004 4.85622C6.08053 5.4723 5.58043 5.97143 4.96484 5.97143C5.58043 5.97143 6.08004 6.47105 6.08004 7.08664C6.08004 7.70321 5.58043 8.20233 4.96484 8.20233C4.34827 8.20233 3.84865 7.70272 3.84865 7.08664C3.84914 6.47105 4.34925 5.97143 4.96484 5.97143ZM1.59426 9.26812C1.59426 8.65155 2.09387 8.15242 2.71044 8.15242C3.32603 8.15242 3.82565 8.65204 3.82565 9.26812C3.82565 9.8842 3.32603 10.3833 2.71044 10.3833C2.09387 10.3833 1.59426 9.88371 1.59426 9.26812ZM1.58251 13.7329C1.58251 13.1158 2.08213 12.6172 2.69772 12.6172C3.31429 12.6172 3.81293 13.1168 3.81293 13.7329C3.81293 14.3485 3.3138 14.8476 2.69772 14.8476C2.08262 14.8481 1.58251 14.3485 1.58251 13.7329ZM2.73344 17.079C2.11687 17.079 1.61823 16.5794 1.61823 15.9633C1.61823 15.3472 2.11736 14.8481 2.73344 14.8481C3.34952 14.8481 3.84865 15.3477 3.84865 15.9633C3.84914 16.5799 3.3505 17.079 2.73344 17.079ZM4.94184 19.3603C4.32527 19.3603 3.82565 18.8607 3.82565 18.2456C3.82565 17.6285 4.32527 17.1299 4.94184 17.1299C5.55743 17.1299 6.05705 17.6295 6.05705 18.2456C6.05705 18.8616 5.55645 19.3603 4.94184 19.3603ZM6.05656 18.1683C6.05656 17.5517 6.55617 17.0526 7.17176 17.0526C7.78833 17.0526 8.28697 17.5522 8.28697 18.1683C8.28697 18.7843 7.78784 19.2835 7.17176 19.2835C6.55617 19.2835 6.05656 18.7843 6.05656 18.1683ZM7.18498 21.5173C6.56841 21.5173 6.06977 21.0177 6.06977 20.4016C6.06977 19.786 6.5689 19.2869 7.18498 19.2869C7.80057 19.2869 8.30018 19.7865 8.30018 20.4016C8.2997 21.0177 7.79959 21.5173 7.18498 21.5173ZM9.41539 21.5677C8.79882 21.5677 8.30018 21.0681 8.30018 20.452C8.30018 19.8359 8.79931 19.3368 9.41539 19.3368C10.0315 19.3368 10.5306 19.8364 10.5306 20.452C10.5311 21.0686 10.0315 21.5677 9.41539 21.5677ZM11.6468 21.5129C11.0302 21.5129 10.5316 21.0133 10.5316 20.3977C10.5316 19.7811 11.0307 19.2825 11.6468 19.2825C12.2624 19.2825 12.762 19.7821 12.762 20.3977C12.762 21.0128 12.2629 21.5129 11.6468 21.5129ZM13.8772 21.5633C13.2606 21.5633 12.762 21.0637 12.762 20.4476C12.762 19.8315 13.2616 19.3324 13.8772 19.3324C14.4938 19.3324 14.9924 19.832 14.9924 20.4476C14.9934 21.0642 14.4938 21.5633 13.8772 21.5633ZM16.9307 21.1204C16.7129 21.2438 16.4922 21.3617 16.2671 21.4703C16.2158 21.4777 16.1634 21.486 16.1106 21.486C15.494 21.486 14.9953 20.9864 14.9953 20.3703C14.9953 19.7542 15.4945 19.2556 16.1106 19.2556C16.7261 19.2556 17.2258 19.7552 17.2258 20.3703C17.2243 20.6605 17.1108 20.9223 16.9307 21.1204ZM18.3282 19.303C17.7117 19.303 17.2121 18.8034 17.2121 18.1878C17.2121 17.5713 17.7117 17.0721 18.3282 17.0721C18.9438 17.0721 19.4435 17.5717 19.4435 18.1878C19.4435 18.8039 18.9438 19.303 18.3282 19.303ZM18.3512 17.0721C17.7357 17.0721 17.2365 16.5725 17.2365 15.9564C17.2365 15.3408 17.7361 14.8417 18.3512 14.8417C18.9683 14.8417 19.4674 15.3413 19.4674 15.9564C19.4674 16.5725 18.9683 17.0721 18.3512 17.0721ZM21.6817 15.7998C21.691 15.8556 21.6983 15.9119 21.6983 15.9711C21.6983 16.3959 21.459 16.7604 21.1101 16.9488C20.9536 17.0344 20.775 17.0868 20.5836 17.0868C19.967 17.0868 19.4689 16.5872 19.4689 15.9711C19.4689 15.355 19.968 14.8564 20.5836 14.8564C21.14 14.8549 21.5995 15.265 21.6817 15.7998ZM20.5474 14.8549C19.9318 14.8549 19.4322 14.3553 19.4322 13.7402C19.4322 13.1231 19.9318 12.6245 20.5474 12.6245C21.164 12.6245 21.6626 13.1241 21.6626 13.7402C21.6636 14.3563 21.164 14.8549 20.5474 14.8549ZM20.5714 12.6245C19.9548 12.6245 19.4562 12.1249 19.4562 11.5093C19.4562 10.8927 19.9558 10.3936 20.5714 10.3936C21.188 10.3936 21.6866 10.8932 21.6866 11.5093C21.6866 12.1244 21.188 12.6245 20.5714 12.6245Z" fill="#A5E985"/>
</g>
<defs>
<clipPath id="clip0">
<rect width="23" height="23" fill="white"/>
</clipPath>
</defs>
</svg>
