<svg width="94" height="94" viewBox="0 0 94 94" fill="none" xmlns="http://www.w3.org/2000/svg">
<path d="M62.087 30.0645C62.1924 30.9623 62.2873 31.8812 62.3758 32.8212C63.1366 32.8886 63.9375 32.9455 64.6751 33.0235C64.5656 32.1088 64.4686 31.1773 64.3464 30.3047C63.6087 30.2183 62.8521 30.1382 62.087 30.0645Z" fill="#131313"/>
<path d="M65.2969 14.9343C65.632 16.0197 65.9587 17.1599 66.2769 18.3486C66.9323 18.454 67.5625 18.5678 68.1948 18.6816C67.8576 17.4929 67.5077 16.3675 67.1536 15.3053C66.5446 15.1767 65.927 15.0566 65.2969 14.9343Z" fill="#131313"/>
<path d="M68.0515 26.5175C68.7301 26.6145 69.4066 26.7114 70.0558 26.8168C69.8324 25.5649 69.5837 24.3762 69.3266 23.2213C68.6774 23.0885 68.0178 22.9578 67.3391 22.8335C67.5899 24.0222 67.8302 25.2425 68.0515 26.5175Z" fill="#131313"/>
<path d="M65.3011 40.4023C65.2506 39.3443 65.162 38.3474 65.082 37.3337C64.3106 37.2473 63.5181 37.1672 62.7151 37.0913C62.7805 38.1282 62.8395 39.1883 62.8838 40.2716C63.7078 40.3117 64.515 40.3559 65.3011 40.4023Z" fill="#131313"/>
<path d="M71.7502 46.7904C71.7502 46.2129 71.7165 45.686 71.7123 45.117C71.0442 45.058 70.355 44.9968 69.6532 44.9399C69.6616 45.5532 69.6785 46.156 69.6785 46.7799C69.6785 47.5533 69.6616 48.3057 69.649 49.056C70.3529 49.0223 71.0379 48.9907 71.7039 48.9528C71.7186 48.2278 71.7502 47.5428 71.7502 46.7904Z" fill="#131313"/>
<path d="M45.6985 32.1596C46.2107 32.1554 46.7123 32.147 47.235 32.147C47.8904 32.147 48.4869 32.1723 49.1255 32.1807C49.0854 31.2576 49.0496 30.3281 49.0032 29.3966C48.4869 29.3924 47.9811 29.3818 47.4521 29.3818C46.9294 29.3818 46.4552 29.405 45.943 29.4113C45.8587 30.3345 45.7765 31.2513 45.6985 32.1596Z" fill="#131313"/>
<path d="M65.28 53.4546C64.5065 53.4841 63.7119 53.5073 62.8921 53.5326C62.8436 54.7929 62.772 56.0111 62.694 57.2082C63.4864 57.1302 64.2704 57.048 65.0271 56.9574C65.1282 55.813 65.2189 54.6622 65.28 53.4546Z" fill="#131313"/>
<path d="M64.1525 64.5276C64.3127 63.478 64.4539 62.3757 64.5888 61.2629C63.8532 61.3451 63.1156 61.4231 62.3505 61.4969C62.2409 62.6223 62.125 63.7288 61.9943 64.7931C62.7257 64.713 63.4486 64.6224 64.1525 64.5276Z" fill="#131313"/>
<path d="M71.5901 53.1868C70.9241 53.2247 70.2307 53.2542 69.5247 53.29C69.4762 54.3396 69.4088 55.3639 69.3392 56.3755C70.0516 56.2617 70.7218 56.1416 71.4026 56.0215C71.4679 55.0857 71.5459 54.1626 71.5901 53.1868Z" fill="#131313"/>
<path d="M73.8958 24.2898C74.1107 25.3647 74.3088 26.4732 74.4943 27.6198C75.4532 27.8158 76.37 28.0181 77.2552 28.2267C77.0402 27.1245 76.8105 26.0749 76.5682 25.0548C75.7083 24.7935 74.8273 24.5364 73.8958 24.2898Z" fill="#131313"/>
<path d="M71.9863 16.5193C72.2855 17.5162 72.5659 18.5657 72.8419 19.649C73.6766 19.845 74.4901 20.0453 75.272 20.256C74.9369 19.1769 74.5891 18.1632 74.2372 17.1979C73.5206 16.9661 72.764 16.7427 71.9863 16.5193Z" fill="#131313"/>
<path d="M62.4938 7.39551C62.8985 8.31863 63.3095 9.30497 63.7078 10.3545C64.2874 10.4452 64.8311 10.5527 65.3918 10.6538C64.9218 9.55156 64.4644 8.54624 64.0092 7.63788C63.5202 7.55147 63.0081 7.47349 62.4938 7.39551Z" fill="#131313"/>
<path d="M78.8318 41.6394C78.7981 40.9545 78.7412 40.3138 78.699 39.6499C77.7527 39.4286 76.7685 39.2115 75.7336 39.0007C75.7779 39.751 75.8201 40.5119 75.8538 41.2853C76.8844 41.4013 77.8855 41.5172 78.8318 41.6394Z" fill="#131313"/>
<path d="M77.4934 13.8174C77.7189 13.8975 77.9718 13.9755 78.1889 14.0577C77.6136 13.1092 77.074 12.3147 76.5745 11.6318C76.8843 12.3189 77.1899 13.0587 77.4934 13.8174Z" fill="#131313"/>
<path d="M71.6196 40.8681C71.5753 39.947 71.4931 39.0998 71.4341 38.2146C70.7597 38.1029 70.0874 37.9912 69.3813 37.8879C69.4404 38.8089 69.4973 39.7426 69.5394 40.6952C70.2497 40.75 70.941 40.809 71.6196 40.8681Z" fill="#131313"/>
<path d="M70.6523 63.4298C70.7871 62.4519 70.8967 61.4086 71.0105 60.3801C70.3361 60.4918 69.6448 60.5993 68.9367 60.7005C68.8166 61.7711 68.6901 62.8165 68.5447 63.8323C69.2655 63.7059 69.9652 63.5689 70.6523 63.4298Z" fill="#131313"/>
<path d="M68.6985 30.8887C68.8124 31.7591 68.9156 32.6485 69.0063 33.5548C69.7102 33.6517 70.3783 33.7571 71.059 33.8625C70.9621 32.9688 70.863 32.0795 70.7513 31.228C70.0811 31.1121 69.3983 30.9983 68.6985 30.8887Z" fill="#131313"/>
<path d="M69.2149 8.79492C69.6027 9.70118 69.9905 10.6664 70.3741 11.6949C70.96 11.8383 71.5501 11.9795 72.1065 12.1291C71.5733 11.0205 71.0569 10.0384 70.5616 9.16586C70.138 9.03729 69.6659 8.91927 69.2149 8.79492Z" fill="#131313"/>
<path d="M46.3413 25.1771C46.7144 25.1749 47.0769 25.1665 47.452 25.1665C47.9157 25.1665 48.3583 25.1749 48.8135 25.1792C48.7503 23.8029 48.6828 22.4414 48.6196 21.1031C47.9979 21.0947 47.3803 21.0841 46.7417 21.082C46.6048 22.4393 46.472 23.8071 46.3413 25.1771Z" fill="#131313"/>
<path d="M47.3214 83.8962C47.4562 85.1755 47.5869 86.4 47.7113 87.5424C47.7618 87.5424 47.8082 87.5381 47.8567 87.5381C47.9262 86.5623 48.0126 85.3399 48.1117 83.911C48.099 83.911 48.0885 83.911 48.0759 83.911C47.8166 83.911 47.5806 83.8983 47.3214 83.8962Z" fill="#131313"/>
<path d="M48.569 76.8803C48.255 76.8824 47.9494 76.8908 47.6291 76.8908C47.2834 76.8908 46.9546 76.8803 46.6132 76.8782C46.706 77.8245 46.7987 78.756 46.8893 79.6707C47.294 79.6749 47.667 79.6981 48.078 79.6981C48.1876 79.6981 48.2845 79.6918 48.392 79.6918C48.4489 78.7876 48.51 77.8519 48.569 76.8803Z" fill="#131313"/>
<path d="M78.9582 46.8513C78.9582 46.531 78.9372 46.238 78.9329 45.9261C77.9845 45.7975 76.994 45.6753 75.9486 45.5552C75.9528 45.9683 75.9655 46.3729 75.9655 46.7944C75.9655 47.4415 75.9528 48.0674 75.9444 48.6955C77.0024 48.6217 77.9972 48.5479 78.9203 48.4721C78.9308 47.922 78.9582 47.4119 78.9582 46.8513Z" fill="#131313"/>
<path d="M78.8191 52.719C77.8855 52.7928 76.8928 52.8665 75.8348 52.9382C75.799 53.699 75.7568 54.4409 75.7104 55.1785C76.7558 54.9509 77.7506 54.7128 78.7011 54.4704C78.7411 53.8824 78.7875 53.3218 78.8191 52.719Z" fill="#131313"/>
<path d="M48.0084 9.11744C48.0126 9.11744 48.0148 9.11744 48.019 9.11744C48.0169 9.09845 48.0169 9.07734 48.0148 9.05835C48.0105 9.07945 48.0084 9.10056 48.0084 9.11744Z" fill="#131313"/>
<path d="M49.0011 0.3479C48.9379 0.883225 48.8684 1.50917 48.7841 2.18992C49.2077 2.19203 49.6187 2.19835 50.0317 2.20467C49.6397 1.45016 49.292 0.832643 49.0011 0.3479Z" fill="#131313"/>
<path d="M75.1309 32.0898C75.2299 32.9118 75.3163 33.7527 75.3985 34.6063C76.3912 34.796 77.3881 34.9857 78.3091 35.1859C78.2185 34.366 78.1152 33.563 78.0056 32.779C77.0909 32.5451 76.1362 32.3132 75.1309 32.0898Z" fill="#131313"/>
<path d="M47.176 16.8733C47.5933 16.8733 48.0021 16.8817 48.4131 16.8859C48.3541 15.6572 48.293 14.4664 48.2361 13.3368C48.0021 13.3347 47.7872 13.322 47.5511 13.322C47.4268 14.4728 47.3024 15.6614 47.176 16.8733Z" fill="#131313"/>
<path d="M77.3459 66.2073C76.4017 66.4623 75.4238 66.7131 74.4038 66.9534C74.2647 67.7922 74.1171 68.6099 73.9654 69.4108C74.9834 69.1199 75.9549 68.8249 76.8802 68.5151C77.0361 67.7584 77.2005 67.0145 77.3459 66.2073Z" fill="#131313"/>
<path d="M61.6487 90.7439C61.1913 90.8134 60.6918 90.8661 60.2197 90.9273C59.931 91.4605 59.6486 91.9663 59.3725 92.4342C59.8362 92.3077 60.2956 92.1792 60.7509 92.0379C60.9743 91.7408 61.2756 91.3087 61.6487 90.7439Z" fill="#131313"/>
<path d="M65.7795 82.5728C65.1514 82.6739 64.5171 82.7772 63.8679 82.8678C63.4085 84.0944 62.9448 85.2388 62.4811 86.3011C63.0839 86.1936 63.7162 86.0945 64.2894 85.9807C64.7742 84.9649 65.2737 83.8331 65.7795 82.5728Z" fill="#131313"/>
<path d="M61.5138 25.7715C62.2346 25.8347 62.9343 25.9043 63.6256 25.978C63.3748 24.6313 63.0987 23.3541 62.8078 22.1169C62.1693 22.0305 61.5222 21.9462 60.8583 21.8704C61.0944 23.1159 61.3094 24.4226 61.5138 25.7715Z" fill="#131313"/>
<path d="M75.7441 73.3267C74.8463 73.5859 73.9127 73.8346 72.9453 74.077C72.7113 75.0401 72.4627 75.9759 72.2119 76.8674C73.1518 76.6208 74.0644 76.3658 74.918 76.0981C75.1983 75.2172 75.4765 74.3046 75.7441 73.3267Z" fill="#131313"/>
<path d="M61.6128 76.1067C61.0817 76.1678 60.5548 76.2352 60.0069 76.2879C59.7813 77.2848 59.539 78.2311 59.2987 79.1458C59.7813 79.0994 60.2282 79.0362 60.7002 78.9835C61.008 78.0625 61.3157 77.1162 61.6128 76.1067Z" fill="#131313"/>
<path d="M63.3832 68.8882C62.7278 68.9683 62.066 69.042 61.3895 69.1137C61.2377 70.079 61.0796 71.0232 60.9089 71.9357C61.5391 71.862 62.1524 71.784 62.7615 71.7018C62.9765 70.7871 63.1893 69.8619 63.3832 68.8882Z" fill="#131313"/>
<path d="M73.1265 81.0342C72.3404 81.2386 71.5374 81.4346 70.7007 81.6264C70.3192 82.6886 69.9399 83.6897 69.5563 84.6234C70.3719 84.3726 71.1412 84.1176 71.8746 83.8541C72.2772 83.0237 72.6987 82.0648 73.1265 81.0342Z" fill="#131313"/>
<path d="M68.2812 75.0972C67.6109 75.2236 66.9218 75.3438 66.2221 75.4597C65.9586 76.4502 65.6888 77.4092 65.4064 78.3218C66.0809 78.2101 66.7742 78.1026 67.4149 77.9803C67.7121 77.0614 68.0008 76.1109 68.2812 75.0972Z" fill="#131313"/>
<path d="M69.9335 67.8933C69.2486 68.024 68.5489 68.142 67.8302 68.26C67.6637 69.1831 67.4824 70.0894 67.2949 70.9683C68.0093 70.8355 68.7048 70.6943 69.3835 70.5489C69.571 69.6805 69.7607 68.8164 69.9335 67.8933Z" fill="#131313"/>
<path d="M65.4655 46.7817C65.4655 46.0377 65.4254 45.3633 65.417 44.6404C64.6309 44.5919 63.8237 44.5456 63.0017 44.5034C63.0144 45.3169 63.027 46.1284 63.027 46.9651C63.027 47.7596 63.0186 48.5331 63.0038 49.3066C63.83 49.2813 64.6288 49.2602 65.4107 49.2286C65.4233 48.4088 65.4655 47.629 65.4655 46.7817Z" fill="#131313"/>
<path d="M81.2807 26.6799C81.4577 27.5546 81.6116 28.4798 81.7675 29.405C82.6949 29.6769 83.5674 29.9551 84.4041 30.2333C84.2123 29.3629 84.0079 28.5346 83.795 27.7232C83.0131 27.3754 82.1743 27.0277 81.2807 26.6799Z" fill="#131313"/>
<path d="M85.989 42.7416C85.9722 42.3833 85.9637 42.0103 85.9448 41.6562C85.0385 41.359 84.0564 41.0619 83.0089 40.7605C83.0342 41.2431 83.0426 41.7532 83.0574 42.2442C84.1049 42.4086 85.0807 42.573 85.989 42.7416Z" fill="#131313"/>
<path d="M82.4293 34.0564C82.5115 34.7856 82.6021 35.5022 82.6738 36.2567C83.6812 36.5265 84.6486 36.7962 85.5443 37.0702C85.4621 36.3705 85.3567 35.713 85.2598 35.0427C84.3915 34.7182 83.4452 34.3873 82.4293 34.0564Z" fill="#131313"/>
<path d="M79.3671 19.1135C79.6263 19.9587 79.8813 20.8207 80.1237 21.729C80.8318 21.9693 81.5147 22.2117 82.1701 22.4582C81.8519 21.5794 81.521 20.7385 81.1901 19.9502C80.6105 19.672 80.0141 19.3917 79.3671 19.1135Z" fill="#131313"/>
<path d="M85.9321 52.0002C85.0848 52.1098 84.128 52.2194 83.0552 52.3311C83.0426 52.6431 83.0236 52.9508 83.011 53.2606C84.0479 52.936 85.0216 52.6072 85.9089 52.2869C85.9152 52.192 85.9279 52.1014 85.9321 52.0002Z" fill="#131313"/>
<path d="M85.479 56.8918C84.6149 57.1827 83.6834 57.4651 82.7139 57.7517C82.6443 58.5632 82.5495 59.3135 82.4631 60.0933C83.4347 59.7287 84.343 59.364 85.184 59.0015C85.2893 58.3145 85.3905 57.6169 85.479 56.8918Z" fill="#131313"/>
<path d="M88.9924 61.9543C88.9418 62.243 88.8786 62.5149 88.8259 62.7973C90.1473 61.8826 91.0578 61.1155 91.5952 60.616C90.8196 61.048 89.945 61.4969 88.9924 61.9543Z" fill="#131313"/>
<path d="M82.1954 71.0969C81.658 71.3161 81.1016 71.5332 80.5283 71.7482C80.3155 72.6502 80.0921 73.489 79.8687 74.3278C80.3386 74.1297 80.7496 73.9337 81.1775 73.7419C81.5252 72.9073 81.8645 72.0222 82.1954 71.0969Z" fill="#131313"/>
<path d="M84.2734 63.9712C83.5 64.2663 82.6928 64.5529 81.8476 64.8416C81.7465 65.4844 81.6516 66.1336 81.5399 66.749C82.3555 66.397 83.1206 66.045 83.833 65.6952C83.9763 65.1198 84.1322 64.5719 84.2734 63.9712Z" fill="#131313"/>
<path d="M92.4491 60.1353C92.4364 60.1395 92.4215 60.148 92.4109 60.1543L92.4364 60.1756C92.4406 60.1628 92.4448 60.148 92.4491 60.1353Z" fill="#131313"/>
<path d="M90.2296 43.6078C91.0199 43.7891 91.7238 43.964 92.3624 44.1305C91.7576 43.8502 91.0241 43.5404 90.2169 43.2095C90.2211 43.3423 90.2232 43.475 90.2296 43.6078Z" fill="#131313"/>
<path d="M86.0881 47.0685C85.1903 46.8978 84.2166 46.7229 83.1649 46.55C83.1649 46.6554 83.1734 46.7482 83.1734 46.8535C83.1734 47.2751 83.1481 47.6565 83.1439 48.0738C84.2588 47.9516 85.2304 47.8378 86.0713 47.724C86.0734 47.4985 86.0881 47.2961 86.0881 47.0685Z" fill="#131313"/>
<path d="M93.4983 48.8431C92.885 48.6535 92.0525 48.4153 91.0114 48.1519L91.5087 49.9201C92.375 49.4859 93.0262 49.1256 93.4983 48.8431Z" fill="#131313"/>
<path d="M93.8925 53.4248C92.8387 53.9707 91.513 54.5966 89.8965 55.2605C89.8501 55.7558 89.8227 56.2848 89.7679 56.7695C91.827 55.6251 93.1401 54.6788 93.7934 54.1646C93.8313 53.9159 93.8609 53.6693 93.8925 53.4248Z" fill="#131313"/>
<path d="M88.7837 69.0841C89.0956 68.5024 89.4054 67.9081 89.6963 67.3096C89.0197 67.7332 88.2737 68.1695 87.458 68.6141C87.2599 69.3033 87.0555 69.9482 86.8447 70.5974C87.8711 69.8871 88.4928 69.356 88.7837 69.0841Z" fill="#131313"/>
<path d="M86.9249 23.2446C87.0808 23.7294 87.2389 24.1909 87.3906 24.6967C88.0777 25.0319 88.7163 25.3606 89.3085 25.6852C89.1399 25.3522 88.9755 25.0171 88.7985 24.6883C88.4929 24.4207 87.8754 23.9106 86.9249 23.2446Z" fill="#131313"/>
<path d="M88.7247 30.2395C88.8427 30.8233 88.9713 31.386 89.0787 31.993C90.3854 32.5494 91.4961 33.0847 92.4361 33.5716C92.3371 33.2344 92.238 32.8972 92.1305 32.5621C91.5952 32.1237 90.4803 31.2785 88.7247 30.2395Z" fill="#131313"/>
<path d="M93.7197 39.1861L93.667 39.2535C93.627 39.2219 92.4151 38.2777 89.7891 36.9836C89.8439 37.4831 89.8734 38.0269 89.9218 38.5411C91.492 39.1249 92.805 39.675 93.8735 40.1661C93.8272 39.8394 93.7745 39.5106 93.7197 39.1861Z" fill="#131313"/>
<path d="M52.6409 16.9954C53.6062 17.0376 54.5525 17.0903 55.4841 17.1493C55.17 15.8932 54.8455 14.7066 54.5167 13.5875C53.8254 13.5432 53.1742 13.4737 52.4618 13.4399C52.5187 14.5717 52.5777 15.7646 52.6409 16.9954Z" fill="#131313"/>
<path d="M52.8453 21.2275C52.9107 22.5511 52.976 23.8999 53.0392 25.2614C54.4576 25.3078 55.8381 25.3689 57.1764 25.4469C56.9509 24.0517 56.7022 22.7302 56.443 21.4509C55.2733 21.3624 54.0804 21.2823 52.8453 21.2275Z" fill="#131313"/>
<path d="M58.6602 53.6357C57.1237 53.6674 55.5093 53.6884 53.8401 53.7095C53.8127 55.0436 53.779 56.4199 53.7305 57.8425C55.3534 57.7792 56.9151 57.6928 58.4283 57.5832C58.5168 56.3039 58.599 54.9972 58.6602 53.6357Z" fill="#131313"/>
<path d="M52.2447 9.21845C52.5229 9.23109 52.8095 9.23742 53.0793 9.25217C52.7547 8.34802 52.428 7.50499 52.1119 6.72729C52.154 7.47759 52.1962 8.3143 52.2447 9.21845Z" fill="#131313"/>
<path d="M58.8097 46.9632C58.8097 46.0485 58.7718 45.2076 58.7613 44.3203C57.1595 44.2655 55.5093 44.217 53.7895 44.1875C53.819 45.2687 53.8443 46.2888 53.8611 47.2224C53.8759 47.939 53.8843 48.704 53.8843 49.4902C55.5809 49.4712 57.2143 49.4459 58.7655 49.4164C58.776 48.5944 58.8097 47.8146 58.8097 46.9632Z" fill="#131313"/>
<path d="M75.3627 59.5706C75.2699 60.5422 75.1625 61.4906 75.0529 62.4221C76.1024 62.1502 77.0951 61.8699 78.0498 61.5833C78.1636 60.7255 78.2543 59.8171 78.347 58.9109C77.3923 59.1364 76.3954 59.3535 75.3627 59.5706Z" fill="#131313"/>
<path d="M59.0648 83.4243C58.7276 83.4559 58.3777 83.4791 58.0363 83.5086C57.6169 84.809 57.1954 86.004 56.7717 87.1084C56.9993 87.0852 57.2017 87.0515 57.4293 87.0262C57.9625 85.9365 58.5084 84.7626 59.0648 83.4243Z" fill="#131313"/>
<path d="M61.6634 17.7058C61.3009 16.4644 60.9279 15.2905 60.5464 14.1819C60.0574 14.1187 59.5579 14.0554 59.0563 13.9985C59.364 15.1156 59.6591 16.2895 59.9499 17.5245C60.5232 17.5814 61.1028 17.6383 61.6634 17.7058Z" fill="#131313"/>
<path d="M57.0183 69.4973C55.7833 69.5837 54.5124 69.6512 53.2099 69.7081C53.1593 70.667 53.1066 71.6175 53.054 72.5575C54.2321 72.509 55.3807 72.4416 56.4956 72.3615C56.679 71.4384 56.8518 70.4794 57.0183 69.4973Z" fill="#131313"/>
<path d="M53.4418 83.7971C53.0835 83.8119 52.7105 83.8224 52.3459 83.8351C52.2531 85.1776 52.1709 86.3431 52.1014 87.3189C52.5377 86.263 52.9866 85.1017 53.4418 83.7971Z" fill="#131313"/>
<path d="M57.4926 6.77803C57.2375 6.75485 56.9572 6.74431 56.698 6.72534C57.0394 7.61895 57.3787 8.57579 57.7181 9.59375C58.0974 9.63169 58.4642 9.67173 58.8288 9.71178C58.3777 8.64534 57.933 7.67586 57.4926 6.77803Z" fill="#131313"/>
<path d="M58.0489 61.8384C56.5989 61.9353 55.1152 62.0154 53.5746 62.0702C53.5282 63.202 53.4776 64.338 53.4249 65.4739C54.8834 65.4128 56.2849 65.318 57.6611 65.2105C57.8024 64.123 57.9288 62.9954 58.0489 61.8384Z" fill="#131313"/>
<path d="M52.8031 76.7812C52.7462 77.7528 52.6851 78.6928 52.6261 79.5969C53.3637 79.5695 54.0761 79.5337 54.7864 79.4915C55.0414 78.5768 55.3006 77.6474 55.5472 76.6421C54.6536 76.699 53.7389 76.7411 52.8031 76.7812Z" fill="#131313"/>
<path d="M54.9782 91.4688C54.9593 91.4688 54.9424 91.4687 54.9276 91.473C54.8665 91.6036 54.8075 91.7174 54.7464 91.8439C54.8181 91.7322 54.9024 91.5868 54.9782 91.4688Z" fill="#131313"/>
<path d="M78.3344 79.4534C78.3112 79.4618 78.2901 79.4723 78.2732 79.4787C78.2437 79.5587 78.2184 79.6346 78.1868 79.7126C78.2353 79.6304 78.288 79.5398 78.3344 79.4534Z" fill="#131313"/>
<path d="M60.3905 1.61243C60.0659 1.51759 59.735 1.42064 59.4105 1.33423C59.6823 1.7979 59.9669 2.29318 60.2535 2.82428C60.6244 2.86854 60.9806 2.91491 61.341 2.95917C60.968 2.40698 60.6413 1.94332 60.3905 1.61243Z" fill="#131313"/>
<path d="M58.6453 40.0986C58.5926 38.9436 58.5167 37.8351 58.443 36.7328C56.8539 36.6253 55.2205 36.5389 53.5176 36.4778C53.5639 37.6728 53.6103 38.8404 53.6482 39.9679C55.3765 39.9995 57.0393 40.0417 58.6453 40.0986Z" fill="#131313"/>
<path d="M55.0603 2.37948C54.7927 1.95797 54.5503 1.58282 54.3185 1.24561C54.4955 1.59968 54.6768 1.97483 54.8622 2.36894C54.9276 2.37316 54.9929 2.37527 55.0603 2.37948Z" fill="#131313"/>
<path d="M53.2268 29.4829C53.269 30.4081 53.309 31.3334 53.3512 32.2502C54.9845 32.305 56.542 32.3935 58.0763 32.4904C57.9815 31.5589 57.8951 30.602 57.7834 29.7169C56.3144 29.6199 54.8012 29.5377 53.2268 29.4829Z" fill="#131313"/>
<path d="M13.617 26.7051C12.7234 27.0718 11.8909 27.4427 11.109 27.8094C10.9024 28.5871 10.698 29.3648 10.5125 30.1973C11.345 29.9255 12.2154 29.6578 13.1343 29.3922C13.2903 28.486 13.442 27.5629 13.617 26.7051Z" fill="#131313"/>
<path d="M38.4337 87.1587C38.0375 86.027 37.6371 84.7814 37.245 83.4389C36.8362 83.3988 36.4463 83.3567 36.0458 83.3167C36.5769 84.7034 37.1017 85.93 37.6181 87.0618C37.8963 87.0934 38.1471 87.1313 38.4337 87.1587Z" fill="#131313"/>
<path d="M15.8869 47.1486C15.8869 47.5448 15.9101 47.8946 15.9122 48.2803C16.829 48.3815 17.8195 48.4784 18.8986 48.5712C18.8923 48.078 18.8818 47.5954 18.8818 47.0938C18.8818 46.5985 18.8944 46.1201 18.8986 45.6311C17.8596 45.7512 16.869 45.8693 15.9164 45.9957C15.9122 46.3877 15.8869 46.7523 15.8869 47.1486Z" fill="#131313"/>
<path d="M35.4853 76.2879C34.8825 76.2289 34.2987 76.1573 33.7107 76.0835C33.9784 77.0656 34.2544 77.9866 34.5348 78.8887C35.0469 78.9498 35.5633 79.013 36.0923 79.0657C35.8836 78.1848 35.6813 77.2511 35.4853 76.2879Z" fill="#131313"/>
<path d="M34.2839 69.2064C33.5379 69.1326 32.796 69.0567 32.0752 68.9724C32.2522 69.9103 32.4461 70.7997 32.64 71.6849C33.3123 71.7776 33.9994 71.864 34.6949 71.9441C34.5495 71.0589 34.4125 70.1463 34.2839 69.2064Z" fill="#131313"/>
<path d="M41.9597 72.5385C41.8754 71.6007 41.7911 70.6565 41.7089 69.7102C40.6467 69.668 39.6077 69.6153 38.5897 69.5542C38.7288 70.5216 38.8806 71.4552 39.0344 72.3615C39.9892 72.431 40.9671 72.4922 41.9597 72.5385Z" fill="#131313"/>
<path d="M42.3601 76.7728C41.515 76.7369 40.6846 76.6948 39.869 76.6421C40.0818 77.6137 40.2968 78.5473 40.5223 79.4325C41.2305 79.4768 41.9028 79.5442 42.6362 79.5737C42.5456 78.6548 42.4529 77.7233 42.3601 76.7728Z" fill="#131313"/>
<path d="M41.0998 62.0618C39.947 62.0175 38.8194 61.9585 37.7192 61.8848C37.8162 63.0545 37.9237 64.1968 38.0417 65.2885C39.1208 65.3665 40.2273 65.4276 41.3569 65.4824C41.2663 64.3296 41.1799 63.1894 41.0998 62.0618Z" fill="#131313"/>
<path d="M39.8626 91.4729C40.341 92.3012 40.7689 92.9946 41.1187 93.5215C40.8152 92.9271 40.4928 92.2485 40.1556 91.494C40.0586 91.4855 39.9596 91.4771 39.8626 91.4729Z" fill="#131313"/>
<path d="M32.6843 86.4297C32.2185 85.2916 31.7527 84.0608 31.2933 82.7393C30.4207 82.6086 29.5862 82.4653 28.7579 82.322C29.2995 83.7151 29.837 84.9312 30.3554 86.025C31.0973 86.1705 31.8855 86.299 32.6843 86.4297Z" fill="#131313"/>
<path d="M22.4393 76.5935C22.2012 75.7209 21.9672 74.8168 21.7459 73.8768C20.846 73.6471 19.9756 73.4026 19.1346 73.156C19.4044 74.1128 19.6826 75.0149 19.9671 75.879C20.7554 76.1235 21.5773 76.3616 22.4393 76.5935Z" fill="#131313"/>
<path d="M19.4234 59.3411C18.3991 59.1135 17.4107 58.8711 16.4601 58.6245C16.5592 59.6045 16.6709 60.5593 16.791 61.4866C17.7289 61.7774 18.7089 62.0599 19.7353 62.336C19.6257 61.3623 19.5161 60.3696 19.4234 59.3411Z" fill="#131313"/>
<path d="M16.1503 79.1226C16.5782 79.8813 16.9913 80.5726 17.3917 81.1859C17.1493 80.5852 16.9069 79.9487 16.6667 79.2954C16.496 79.2364 16.3168 79.1816 16.1503 79.1226Z" fill="#131313"/>
<path d="M19.103 54.8834C19.063 54.2005 19.0293 53.5113 18.9998 52.8074C17.9291 52.7168 16.9344 52.6219 16.007 52.5271C16.0323 53.0751 16.0787 53.5767 16.1103 54.112C17.0629 54.3775 18.064 54.6326 19.103 54.8834Z" fill="#131313"/>
<path d="M20.7574 69.1938C20.6204 68.4435 20.4877 67.6721 20.3612 66.886C19.377 66.6478 18.4243 66.4012 17.5096 66.1399C17.6487 66.8923 17.8026 67.5962 17.9522 68.3128C18.848 68.6184 19.7837 68.9114 20.7574 69.1938Z" fill="#131313"/>
<path d="M43.4582 87.456C43.3318 86.3032 43.2032 85.0808 43.0662 83.8015C42.6236 83.7825 42.1768 83.7677 41.7405 83.7488C42.1768 85.125 42.6131 86.3558 43.0367 87.4539C43.1737 87.4518 43.3233 87.4518 43.4582 87.456Z" fill="#131313"/>
<path d="M28.1319 70.9495C27.9633 70.1043 27.8032 69.236 27.6493 68.3466C26.6777 68.1927 25.7293 68.0284 24.8083 67.8513C24.9642 68.7323 25.1413 69.5395 25.312 70.3635C26.2246 70.5701 27.1603 70.764 28.1319 70.9495Z" fill="#131313"/>
<path d="M25.1855 84.7921C24.7534 83.7298 24.3214 82.5812 23.8957 81.3441C23.177 81.1776 22.5026 81.0005 21.8239 80.8235C22.3761 82.1007 22.922 83.2577 23.4404 84.2357C24.0031 84.4253 24.5659 84.6108 25.1855 84.7921Z" fill="#131313"/>
<path d="M29.8665 78.2141C29.6156 77.3247 29.3712 76.3911 29.1309 75.4363C28.1888 75.2783 27.272 75.1097 26.3784 74.9326C26.6376 75.9063 26.9032 76.8231 27.1751 77.7083C28.0476 77.8874 28.9412 78.0539 29.8665 78.2141Z" fill="#131313"/>
<path d="M33.9256 92.116C34.482 92.2804 35.0384 92.4405 35.6032 92.586C35.3313 92.0928 35.0489 91.5575 34.7602 90.9863C34.1595 90.9126 33.5462 90.8409 32.9688 90.7566C33.3776 91.3741 33.698 91.8272 33.9256 92.116Z" fill="#131313"/>
<path d="M0.581665 39.8015C1.68393 39.2936 3.14658 38.6824 4.99704 38.0269C5.03708 37.6433 5.06026 37.2387 5.10452 36.8635C2.65973 38.0037 1.21183 38.9184 0.670183 39.2915C0.63857 39.4643 0.606956 39.6308 0.581665 39.8015Z" fill="#131313"/>
<path d="M45.0916 39.9448C46.0631 39.9364 46.9905 39.9175 47.9937 39.9175C48.4826 39.9175 48.9526 39.9217 49.4332 39.9238C49.391 38.7836 49.3468 37.6033 49.3004 36.3957C48.607 36.3873 47.9494 36.3599 47.2371 36.3599C46.5837 36.3599 45.9894 36.383 45.3529 36.3894C45.2538 37.616 45.1674 38.8046 45.0916 39.9448Z" fill="#131313"/>
<path d="M7.78115 23.9758C6.35432 24.998 5.39748 25.82 4.88745 26.3005C5.67147 25.8263 6.54822 25.3352 7.50085 24.842C7.58936 24.5364 7.69053 24.2709 7.78115 23.9758Z" fill="#131313"/>
<path d="M44.0546 6.50171C44.0146 6.50382 43.9745 6.50382 43.9345 6.50382C43.6141 7.33842 43.2875 8.23835 42.9545 9.20784C43.2179 9.1973 43.4898 9.19519 43.7553 9.18676C43.8586 8.2531 43.9577 7.35528 44.0546 6.50171Z" fill="#131313"/>
<path d="M0.514265 53.4333C1.10228 53.937 2.56494 55.092 5.03291 56.5083C4.97179 55.9266 4.93174 55.3049 4.88327 54.7C3.08129 53.9096 1.59334 53.1614 0.39624 52.4976C0.432069 52.8074 0.472113 53.1172 0.514265 53.4333Z" fill="#131313"/>
<path d="M0.177004 44.649L0.109562 44.5415C0.107454 44.5837 0.107454 44.6258 0.105347 44.6701C0.130638 44.6637 0.153821 44.6574 0.177004 44.649Z" fill="#131313"/>
<path d="M7.91175 70.6206C7.68624 69.9019 7.46494 69.1706 7.25419 68.4034C6.23623 67.8618 5.31943 67.3349 4.48694 66.8228C4.83258 67.5625 5.19508 68.2896 5.57866 69.0062C5.94749 69.3034 6.70622 69.8745 7.91175 70.6206Z" fill="#131313"/>
<path d="M5.85063 31.8961C5.93493 31.4325 6.03188 30.9962 6.1225 30.5452C3.96856 31.9277 2.6998 33.0511 2.18134 33.5548C3.20983 33.0384 4.42801 32.4778 5.85063 31.8961Z" fill="#131313"/>
<path d="M5.94545 62.7086C5.88222 62.3693 5.80635 62.0532 5.74523 61.7075C4.2067 60.9446 2.88525 60.2006 1.7851 59.522C1.78931 59.5409 1.79353 59.5578 1.79985 59.5726C2.37943 60.1184 3.73039 61.2839 5.94545 62.7086Z" fill="#131313"/>
<path d="M4.56491 49.8567L4.60917 49.7619C4.5902 49.1528 4.56491 48.5564 4.5607 47.9304C3.58067 48.1496 2.71025 48.354 2.00842 48.5311C2.70603 48.9294 3.58067 49.3804 4.56491 49.8567Z" fill="#131313"/>
<path d="M8.86444 42.7689C9.77913 42.6108 10.7549 42.4527 11.7919 42.2926C11.8193 41.6308 11.8509 40.9774 11.8909 40.3325C10.8435 40.6128 9.86343 40.891 8.96561 41.1671C8.93188 41.6982 8.89184 42.223 8.86444 42.7689Z" fill="#131313"/>
<path d="M11.8003 52.7864C11.7897 52.5398 11.7918 52.2658 11.7834 52.015C10.6601 51.8549 9.69901 51.6947 8.87073 51.5366C8.87494 51.5977 8.87283 51.6652 8.87705 51.7242C9.78331 52.0783 10.7591 52.4323 11.8003 52.7864Z" fill="#131313"/>
<path d="M13.5433 20.5069C13.2925 21.1118 13.048 21.7778 12.8014 22.4353C13.4463 22.1803 14.1249 21.9316 14.8205 21.685C15.0186 20.9621 15.2209 20.2708 15.4295 19.5901C14.7678 19.8957 14.1418 20.1992 13.5433 20.5069Z" fill="#131313"/>
<path d="M9.4082 36.6275C10.2913 36.3746 11.2313 36.1259 12.2281 35.8773C12.2914 35.2429 12.3841 34.6675 12.4579 34.0542C11.4483 34.3724 10.5084 34.6907 9.63371 35.0089C9.55363 35.54 9.47775 36.0754 9.4082 36.6275Z" fill="#131313"/>
<path d="M8.75483 47.2266C9.51777 47.3868 10.483 47.5596 11.6886 47.7451C11.6865 47.5385 11.6738 47.3531 11.6738 47.1486C11.6738 46.9589 11.6865 46.7861 11.6886 46.5964C10.6411 46.7608 9.66108 46.9252 8.75061 47.0896C8.75061 47.1402 8.75483 47.1823 8.75483 47.2266Z" fill="#131313"/>
<path d="M12.3672 59.9583C12.2745 59.1153 12.186 58.2659 12.1101 57.385C11.1048 57.0688 10.1606 56.7464 9.25854 56.426C9.35339 57.2543 9.47773 58.0194 9.59365 58.8055C10.4535 59.1912 11.3788 59.5768 12.3672 59.9583Z" fill="#131313"/>
<path d="M15.0312 74.1529C14.7972 73.3141 14.5612 72.4711 14.342 71.5627C13.6844 71.3183 13.0543 71.0696 12.441 70.8167C12.7655 71.7545 13.1028 72.6376 13.4463 73.4827C13.95 73.7061 14.4727 73.9253 15.0312 74.1529Z" fill="#131313"/>
<path d="M13.3093 66.5532C13.2018 65.961 13.1006 65.3477 13.0016 64.7302C12.1269 64.4224 11.2818 64.1169 10.4851 63.8049C10.6095 64.374 10.7422 64.9093 10.8792 65.453C11.638 65.8198 12.4452 66.1865 13.3093 66.5532Z" fill="#131313"/>
<path d="M4.62821 43.5762C4.63875 43.2748 4.63875 42.9607 4.6535 42.6636C2.38575 43.5509 1.04533 44.2548 0.514221 44.5562C1.57222 44.2738 2.91686 43.9408 4.62821 43.5762Z" fill="#131313"/>
<path d="M40.6172 44.2275C39.4707 44.2549 38.3473 44.2866 37.2514 44.3245C37.2155 45.6797 37.1734 47.018 37.1734 48.4385C37.1734 48.7799 37.1797 49.1045 37.1818 49.448C38.2567 49.4691 39.3569 49.4902 40.5034 49.5007C40.4971 48.7441 40.4971 48.0148 40.5097 47.3489C40.5266 46.4026 40.5645 45.3509 40.6172 44.2275Z" fill="#131313"/>
<path d="M42.925 16.9239C43.0514 15.7289 43.1736 14.555 43.2959 13.4148C42.7437 13.4359 42.1599 13.4317 41.6204 13.4612C41.3021 14.5761 40.9881 15.7605 40.6825 17.0061C41.418 16.9745 42.1683 16.9471 42.925 16.9239Z" fill="#131313"/>
<path d="M41.1125 36.459C39.9006 36.4969 38.7688 36.5644 37.616 36.6234C37.5317 37.7383 37.479 38.9312 37.4158 40.0988C38.5433 40.0608 39.6772 40.025 40.8595 39.9997C40.9333 38.8637 41.0197 37.6793 41.1125 36.459Z" fill="#131313"/>
<path d="M38.9754 25.3837C39.9913 25.3332 41.0324 25.2889 42.0925 25.2552C42.2232 23.8853 42.3581 22.5153 42.4929 21.1602C41.5509 21.1918 40.6256 21.2339 39.7236 21.2866C39.4601 22.5912 39.2136 23.9611 38.9754 25.3837Z" fill="#131313"/>
<path d="M31.8918 25.9189C32.7812 25.8283 33.6917 25.7461 34.6212 25.6702C34.8403 24.2603 35.0827 22.9241 35.3293 21.6216C34.4336 21.7101 33.5568 21.8092 32.7033 21.9166C32.4145 23.1938 32.1426 24.5216 31.8918 25.9189Z" fill="#131313"/>
<path d="M41.6962 29.4871C40.5391 29.5292 39.4559 29.6009 38.3515 29.6641C38.2377 30.5472 38.1281 31.4366 38.0269 32.3597C39.1418 32.307 40.2883 32.2648 41.4559 32.2311C41.536 31.327 41.614 30.4102 41.6962 29.4871Z" fill="#131313"/>
<path d="M33.7949 17.5392C34.5916 17.4528 35.4051 17.3748 36.2334 17.3053C36.5137 16.0934 36.8045 14.9469 37.0975 13.8425C36.3177 13.9268 35.58 14.0364 34.8319 14.1397C34.4799 15.2125 34.1321 16.34 33.7949 17.5392Z" fill="#131313"/>
<path d="M33.5146 3.27933C33.9466 3.214 34.3724 3.14655 34.8171 3.08543C35.1964 2.35832 35.561 1.69865 35.9088 1.1001C35.5716 1.18229 35.2365 1.27081 34.8993 1.36144C34.6485 1.66704 34.1532 2.31617 33.5146 3.27933Z" fill="#131313"/>
<path d="M36.4863 9.6613C37.0891 9.59807 37.7361 9.55803 38.3579 9.50323C38.6656 8.54639 38.9712 7.66121 39.2768 6.81396C38.7098 6.86455 38.1956 6.94042 37.6497 6.99943C37.2661 7.81506 36.8804 8.70235 36.4863 9.6613Z" fill="#131313"/>
<path d="M40.8216 57.8256C40.7373 56.3988 40.6678 55.0205 40.613 53.7159C39.4538 53.7032 38.3431 53.6821 37.2535 53.6653C37.2956 55.0184 37.3462 56.344 37.4158 57.617C38.537 57.6908 39.6498 57.773 40.8216 57.8256Z" fill="#131313"/>
<path d="M47.629 72.6734C48.0337 72.6734 48.4215 72.6629 48.8177 72.6587C48.8704 71.7229 48.9273 70.7703 48.9779 69.8071C48.3983 69.8135 47.825 69.8261 47.2307 69.8261C46.7965 69.8261 46.3814 69.8156 45.9556 69.8113C46.0378 70.7619 46.1221 71.7082 46.2106 72.6545C46.687 72.6629 47.1464 72.6734 47.629 72.6734Z" fill="#131313"/>
<path d="M39.9933 2.53963C40.3179 2.51434 40.6551 2.49537 40.9881 2.47219C41.3864 1.55118 41.7679 0.708146 42.1156 0C41.9533 0.0189682 41.791 0.0442591 41.6288 0.0632273C41.2473 0.573261 40.6761 1.40786 39.9933 2.53963Z" fill="#131313"/>
<path d="M47.2329 65.613C47.8989 65.613 48.5417 65.6004 49.193 65.5898C49.2456 64.4454 49.3004 63.3052 49.3447 62.1693C48.6618 62.1777 47.9832 62.1882 47.2793 62.1882C46.6196 62.1882 45.9831 62.1756 45.3382 62.165C45.4204 63.2926 45.5089 64.437 45.6016 65.5941C46.1475 65.6004 46.6807 65.613 47.2329 65.613Z" fill="#131313"/>
<path d="M44.7249 47.4267C44.7122 48.0758 44.7122 48.7882 44.7207 49.528C45.4204 49.5301 46.118 49.5343 46.843 49.5343C47.804 49.5343 48.7398 49.5322 49.6629 49.528C49.6629 48.7524 49.6587 48.0042 49.6418 47.3045C49.6229 46.3329 49.5976 45.2643 49.566 44.141C49.0412 44.1368 48.5269 44.1326 47.9916 44.1326C46.902 44.1326 45.8904 44.1536 44.8429 44.1621C44.786 45.3486 44.7438 46.4488 44.7249 47.4267Z" fill="#131313"/>
<path d="M47.2792 57.9731C48.0506 57.9731 48.7566 57.9415 49.5112 57.933C49.5554 56.4872 49.5933 55.0878 49.6229 53.7432C48.7124 53.7474 47.7935 53.7495 46.8472 53.7495C46.1622 53.7495 45.5046 53.7453 44.8408 53.7432C44.8956 55.0688 44.9735 56.4725 45.0599 57.9246C45.8039 57.9372 46.5121 57.9731 47.2792 57.9731Z" fill="#131313"/>
<path d="M29.2257 18.1314C29.5123 17.0165 29.8074 15.948 30.113 14.9258C29.3374 15.0775 28.5344 15.2208 27.7947 15.3916C27.4554 16.3905 27.1224 17.4317 26.7978 18.5424C27.5881 18.397 28.3974 18.26 29.2257 18.1314Z" fill="#131313"/>
<path d="M27.9337 4.33327C28.0518 4.11618 28.1677 3.90121 28.2836 3.69678C28.0391 3.80637 27.7946 3.91597 27.5502 4.02767L27.8452 4.32062C27.8431 4.32273 27.8157 4.35434 27.8073 4.36066C27.8494 4.35013 27.8937 4.3417 27.9337 4.33327Z" fill="#131313"/>
<path d="M48.725 93.9937C49.0327 93.528 49.4901 92.784 50.0655 91.7007C49.4332 91.7154 48.8283 91.7428 48.1771 91.7449C48.2719 92.5859 48.3583 93.3446 48.4321 93.9979C48.5311 94.0001 48.626 93.9979 48.725 93.9937Z" fill="#131313"/>
<path d="M33.3735 36.8931C32.4124 36.9689 31.4218 37.0343 30.5093 37.1207C30.4271 38.2061 30.3407 39.2767 30.288 40.4148C31.2132 40.36 32.2122 40.3179 33.1817 40.2736C33.2386 39.1292 33.2955 37.9911 33.3735 36.8931Z" fill="#131313"/>
<path d="M22.7976 12.3062C23.3519 12.1461 23.9504 12.0006 24.53 11.8489C24.8715 10.9384 25.215 10.0849 25.5585 9.27344C25.0717 9.41043 24.6122 9.55164 24.1528 9.69284C23.7144 10.4748 23.2613 11.3431 22.7976 12.3062Z" fill="#131313"/>
<path d="M26.979 63.9355C26.842 62.8839 26.7156 61.7985 26.6018 60.6941C25.6302 60.5466 24.6881 60.3864 23.7671 60.2178C23.8788 61.2842 23.9821 62.3696 24.1127 63.3791C25.038 63.5751 25.9948 63.7606 26.979 63.9355Z" fill="#131313"/>
<path d="M19.6974 20.1569C20.4793 19.9398 21.2802 19.7311 22.1127 19.5288C22.3614 18.5677 22.6185 17.6299 22.884 16.7405C22.1127 16.9786 21.3371 17.221 20.6163 17.4739C20.3044 18.3254 19.9967 19.2127 19.6974 20.1569Z" fill="#131313"/>
<path d="M26.2224 56.3334C26.155 55.3344 26.096 54.3207 26.0517 53.2796C25.0675 53.2311 24.1317 53.1763 23.2297 53.1194C23.2718 54.053 23.3477 54.9193 23.4046 55.8192C24.3256 55.9941 25.2466 56.1711 26.2224 56.3334Z" fill="#131313"/>
<path d="M17.6446 28.229C18.534 28.0225 19.4445 27.8222 20.3992 27.6283C20.5973 26.4418 20.8102 25.3058 21.0357 24.2014C20.1105 24.4543 19.219 24.7157 18.3675 24.9854C18.1146 26.0308 17.8701 27.0972 17.6446 28.229Z" fill="#131313"/>
<path d="M19.5119 34.343C19.5877 33.5927 19.6678 32.8466 19.7542 32.1216C18.7574 32.3408 17.79 32.5642 16.8774 32.796C16.7805 33.4725 16.6983 34.1807 16.614 34.8846C17.5371 34.6991 18.5108 34.5179 19.5119 34.343Z" fill="#131313"/>
<path d="M23.0969 47.0937C23.0969 47.7154 23.1285 48.2803 23.1369 48.8915C24.0242 48.9463 24.9557 49.0053 25.9337 49.0558C25.9231 48.3372 25.9084 47.6269 25.9084 46.8977C25.9084 46.238 25.9231 45.5994 25.9316 44.9524C24.9579 45.0304 24.0558 45.1168 23.1411 45.2011C23.1327 45.8376 23.0969 46.4361 23.0969 47.0937Z" fill="#131313"/>
<path d="M17.339 14.1501C17.6488 13.3809 17.9586 12.6285 18.2684 11.9351C17.7626 12.6327 17.2083 13.4567 16.614 14.4346C16.8521 14.3398 17.0966 14.245 17.339 14.1501Z" fill="#131313"/>
<path d="M33.7676 64.9028C33.6538 63.8111 33.5505 62.692 33.4599 61.5391C32.6042 61.4569 31.7633 61.3705 30.9392 61.2715C31.0699 62.4075 31.2005 63.535 31.3565 64.6099C32.1426 64.7153 32.9456 64.8122 33.7676 64.9028Z" fill="#131313"/>
<path d="M33.1796 57.2459C33.1184 56.0509 33.0721 54.818 33.0362 53.5577C32.0942 53.5282 31.1753 53.5008 30.2922 53.467C30.3491 54.6684 30.4376 55.817 30.5261 56.9656C31.3776 57.0731 32.2923 57.1511 33.1796 57.2459Z" fill="#131313"/>
<path d="M26.8631 30.8169C25.9232 30.956 25.0253 31.1077 24.1401 31.2616C24.0327 32.033 23.9505 32.8549 23.8577 33.6579C24.7408 33.5336 25.6492 33.4176 26.5828 33.3038C26.6692 32.4608 26.762 31.6304 26.8631 30.8169Z" fill="#131313"/>
<path d="M16.0217 41.7068C16.9701 41.5845 17.9776 41.4728 19.0082 41.359C19.0482 40.4591 19.0967 39.5781 19.1515 38.7119C18.1209 38.9037 17.1366 39.1018 16.1988 39.302C16.1376 40.1071 16.0597 40.8743 16.0217 41.7068Z" fill="#131313"/>
<path d="M31.2026 30.2501C31.0888 31.0847 31.0023 31.9826 30.9054 32.853C31.8327 32.7687 32.7832 32.6907 33.7569 32.6212C33.8476 31.7318 33.9319 30.8318 34.0373 29.9783C33.0783 30.0647 32.1151 30.1469 31.2026 30.2501Z" fill="#131313"/>
<path d="M30.1235 46.8936C30.1235 47.7071 30.1636 48.4532 30.1741 49.2435C31.0762 49.2793 31.9972 49.3088 32.9645 49.3384C32.9624 49.0328 32.9561 48.744 32.9561 48.4321C32.9561 47.0748 33.0004 45.8018 33.0299 44.5015C32.0625 44.5499 31.093 44.5984 30.172 44.6532C30.1636 45.4098 30.1235 46.1201 30.1235 46.8936Z" fill="#131313"/>
<path d="M23.2507 40.9418C24.1654 40.8596 25.0738 40.7774 26.0433 40.7057C26.0875 39.6519 26.1444 38.6171 26.2119 37.6055C25.2529 37.7277 24.3551 37.8605 23.4531 37.9975C23.3835 38.9691 23.3013 39.9238 23.2507 40.9418Z" fill="#131313"/>
<path d="M29.5988 10.6981C30.2732 10.5674 30.9392 10.4389 31.6389 10.3208C31.9824 9.3914 32.3281 8.52097 32.6737 7.68848C32.0457 7.79807 31.4239 7.90556 30.8275 8.02358C30.427 8.83921 30.0161 9.73072 29.5988 10.6981Z" fill="#131313"/>
<path d="M24.8546 26.8252C25.7082 26.6903 26.5892 26.5618 27.487 26.4374C27.7062 25.1054 27.9485 23.8325 28.1993 22.5974C27.3205 22.7513 26.4648 22.9157 25.6323 23.0885C25.3583 24.2856 25.0949 25.5227 24.8546 26.8252Z" fill="#131313"/>
</svg>
