<svg width="63" height="44" viewBox="0 0 63 44" fill="none" xmlns="http://www.w3.org/2000/svg">
<circle cx="40.4517" cy="22" r="21.5" stroke="#606060"/>
<path d="M22.0404 10.828C23.6779 10.9246 25.1415 11.364 26.299 12.1495L26.0183 12.5632C26.5956 12.955 27.0867 13.4377 27.4756 14.0118C27.8645 14.5859 28.1307 15.2209 28.2805 15.9024L28.7688 15.7951C29.0691 17.1613 28.9344 18.6836 28.417 20.2402L27.9425 20.0824C27.5218 21.3479 26.8329 22.6483 25.9002 23.9088L26.3022 24.2062C25.454 25.3525 24.4153 26.4599 23.2079 27.4769L22.8858 27.0945C22.3353 27.5582 21.7485 28.003 21.1277 28.4235C20.5069 28.8441 19.8763 29.2241 19.2415 29.5634L19.4772 30.0044C18.085 30.7485 16.6713 31.3026 15.2923 31.6652L15.1651 31.1817C13.6486 31.5804 12.1855 31.738 10.8542 31.6594L10.8248 32.1586C9.18727 32.0619 7.7236 31.6225 6.56612 30.837L6.84689 30.4233C6.26952 30.0315 5.77845 29.5488 5.38953 28.9747C5.00061 28.4007 4.73443 27.7656 4.58466 27.0841L4.09631 27.1915C3.79606 25.8252 3.93075 24.303 4.44818 22.7464L4.92265 22.9041C5.34331 21.6386 6.03223 20.3383 6.96491 19.0777L6.56297 18.7803C7.4111 17.634 8.44988 16.5267 9.65724 15.5097L9.97936 15.8921C10.5299 15.4283 11.1166 14.9836 11.7374 14.563C12.3582 14.1424 12.9889 13.7624 13.6237 13.4231L13.388 12.9821C14.7802 12.238 16.1938 11.6839 17.5729 11.3213L17.7 11.8049C19.2165 11.4061 20.6797 11.2485 22.0109 11.3271L22.0404 10.828Z" stroke="#C9C9C9" stroke-dasharray="4 4"/>
</svg>
