<svg width="118" height="118" viewBox="0 0 118 118" fill="none" xmlns="http://www.w3.org/2000/svg">
<path d="M77.9391 37.7407C78.0714 38.8677 78.1904 40.0212 78.3015 41.2012C79.2566 41.2859 80.262 41.3573 81.188 41.4552C81.0504 40.307 80.9287 39.1376 80.7753 38.0423C79.8493 37.9338 78.8995 37.8333 77.9391 37.7407Z" fill="#A5E985"/>
<path d="M81.9685 18.7474C82.3892 20.1099 82.7992 21.5412 83.1987 23.0334C84.0216 23.1657 84.8126 23.3085 85.6063 23.4514C85.183 21.9592 84.7438 20.5464 84.2993 19.213C83.5347 19.0516 82.7596 18.9008 81.9685 18.7474Z" fill="#A5E985"/>
<path d="M85.4265 33.2879C86.2784 33.4096 87.1276 33.5313 87.9425 33.6636C87.6621 32.0921 87.3499 30.5999 87.0271 29.1501C86.2122 28.9834 85.3841 28.8194 84.5322 28.6633C84.8471 30.1554 85.1487 31.6873 85.4265 33.2879Z" fill="#A5E985"/>
<path d="M81.9738 50.7177C81.9103 49.3896 81.7992 48.1382 81.6986 46.8656C80.7303 46.7571 79.7355 46.6566 78.7275 46.5613C78.8096 47.863 78.8836 49.1938 78.9392 50.5537C79.9737 50.6039 80.9869 50.6595 81.9738 50.7177Z" fill="#A5E985"/>
<path d="M90.0696 58.7368C90.0696 58.0118 90.0273 57.3504 90.022 56.6361C89.1833 56.562 88.3182 56.4853 87.4372 56.4138C87.4478 57.1837 87.4689 57.9404 87.4689 58.7235C87.4689 59.6945 87.4478 60.639 87.4319 61.5809C88.3155 61.5385 89.1754 61.4988 90.0114 61.4512C90.0299 60.5411 90.0696 59.6813 90.0696 58.7368Z" fill="#A5E985"/>
<path d="M57.3663 40.3705C58.0092 40.3652 58.6389 40.3546 59.295 40.3546C60.1178 40.3546 60.8666 40.3864 61.6682 40.397C61.6179 39.2381 61.573 38.0714 61.5148 36.902C60.8666 36.8967 60.2316 36.8835 59.5675 36.8835C58.9114 36.8835 58.3161 36.9126 57.6732 36.9205C57.5674 38.0793 57.4642 39.2302 57.3663 40.3705Z" fill="#A5E985"/>
<path d="M81.9473 67.1024C80.9763 67.1395 79.9789 67.1686 78.9497 67.2003C78.8889 68.7825 78.7989 70.3117 78.701 71.8144C79.6958 71.7165 80.68 71.6133 81.6298 71.4996C81.7568 70.063 81.8706 68.6184 81.9473 67.1024Z" fill="#A5E985"/>
<path d="M80.5319 81.0028C80.733 79.6852 80.9103 78.3016 81.0796 76.9046C80.1562 77.0078 79.2303 77.1057 78.2699 77.1983C78.1323 78.6111 77.9868 80.0001 77.8228 81.3361C78.7408 81.2356 79.6483 81.1218 80.5319 81.0028Z" fill="#A5E985"/>
<path d="M89.8685 66.7663C89.0325 66.8139 88.1621 66.851 87.2758 66.896C87.2149 68.2135 87.1303 69.4993 87.043 70.7692C87.9372 70.6264 88.7785 70.4756 89.6331 70.3248C89.7151 69.1501 89.813 67.9913 89.8685 66.7663Z" fill="#A5E985"/>
<path d="M92.7629 30.4915C93.0328 31.8408 93.2815 33.2324 93.5143 34.6717C94.7181 34.9177 95.869 35.1717 96.9801 35.4336C96.7103 34.05 96.4219 32.7324 96.1177 31.4519C95.0382 31.1238 93.9323 30.8011 92.7629 30.4915Z" fill="#A5E985"/>
<path d="M90.3658 20.7369C90.7415 21.9883 91.0934 23.3058 91.44 24.6657C92.4877 24.9118 93.5089 25.1631 94.4905 25.4277C94.0698 24.0731 93.6333 22.8005 93.1914 21.5888C92.2919 21.2978 91.3421 21.0173 90.3658 20.7369Z" fill="#A5E985"/>
<path d="M78.4497 9.28375C78.9577 10.4426 79.4736 11.6807 79.9736 12.9983C80.7012 13.1121 81.3838 13.247 82.0875 13.374C81.4975 11.9903 80.9234 10.7283 80.352 9.58801C79.7382 9.47953 79.0953 9.38164 78.4497 9.28375Z" fill="#A5E985"/>
<path d="M98.9591 52.2707C98.9168 51.4109 98.8453 50.6066 98.7924 49.7732C97.6045 49.4954 96.369 49.2229 95.0699 48.9583C95.1255 49.9002 95.1784 50.8553 95.2208 51.8262C96.5145 51.9717 97.7712 52.1173 98.9591 52.2707Z" fill="#A5E985"/>
<path d="M97.279 17.3452C97.5621 17.4457 97.8796 17.5436 98.1521 17.6468C97.4298 16.4562 96.7525 15.4588 96.1255 14.6016C96.5144 15.4641 96.898 16.3927 97.279 17.3452Z" fill="#A5E985"/>
<path d="M89.9055 51.3025C89.85 50.1463 89.7468 49.0827 89.6727 47.9715C88.8261 47.8313 87.9821 47.6911 87.0958 47.5615C87.1699 48.7176 87.2413 49.8897 87.2943 51.0855C88.1858 51.1543 89.0536 51.2284 89.9055 51.3025Z" fill="#A5E985"/>
<path d="M88.6912 79.6245C88.8605 78.3969 88.9981 77.0873 89.141 75.7962C88.2944 75.9364 87.4266 76.0713 86.5376 76.1983C86.3868 77.5423 86.2281 78.8546 86.0455 80.1298C86.9504 79.9711 87.8287 79.7991 88.6912 79.6245Z" fill="#A5E985"/>
<path d="M86.2386 38.7751C86.3815 39.8678 86.5112 40.9842 86.6249 42.1219C87.5086 42.2436 88.3473 42.3759 89.2018 42.5081C89.0801 41.3864 88.9558 40.2699 88.8155 39.201C87.9742 39.0555 87.117 38.9127 86.2386 38.7751Z" fill="#A5E985"/>
<path d="M86.8868 11.0404C87.3736 12.178 87.8605 13.3897 88.342 14.6808C89.0775 14.8607 89.8183 15.038 90.5167 15.2258C89.8474 13.8342 89.1992 12.6013 88.5774 11.506C88.0457 11.3446 87.453 11.1965 86.8868 11.0404Z" fill="#A5E985"/>
<path d="M58.1732 31.6054C58.6415 31.6027 59.0966 31.5921 59.5675 31.5921C60.1495 31.5921 60.7051 31.6027 61.2766 31.608C61.1972 29.8804 61.1126 28.1713 61.0332 26.4913C60.2527 26.4807 59.4775 26.4675 58.6759 26.4648C58.5039 28.1686 58.3372 29.8857 58.1732 31.6054Z" fill="#A5E985"/>
<path d="M59.4036 105.317C59.5729 106.923 59.7369 108.46 59.893 109.894C59.9565 109.894 60.0147 109.888 60.0756 109.888C60.1629 108.663 60.2713 107.129 60.3957 105.335C60.3798 105.335 60.3666 105.335 60.3507 105.335C60.0253 105.335 59.729 105.319 59.4036 105.317Z" fill="#A5E985"/>
<path d="M60.9697 96.5092C60.5755 96.5119 60.1919 96.5225 59.7897 96.5225C59.3559 96.5225 58.9431 96.5092 58.5145 96.5066C58.6309 97.6945 58.7473 98.8639 58.8611 100.012C59.3691 100.017 59.8374 100.046 60.3533 100.046C60.4909 100.046 60.6126 100.039 60.7475 100.039C60.8189 98.9036 60.8956 97.7289 60.9697 96.5092Z" fill="#A5E985"/>
<path d="M99.1178 58.8135C99.1178 58.4113 99.0913 58.0436 99.086 57.652C97.8955 57.4906 96.652 57.3372 95.3398 57.1864C95.3451 57.7049 95.3609 58.2129 95.3609 58.742C95.3609 59.5543 95.3451 60.34 95.3345 61.1284C96.6626 61.0358 97.9114 60.9432 99.0702 60.848C99.0834 60.1575 99.1178 59.5172 99.1178 58.8135Z" fill="#A5E985"/>
<path d="M98.9432 66.1791C97.7711 66.2717 96.525 66.3643 95.1969 66.4543C95.1519 67.4094 95.099 68.3406 95.0408 69.2666C96.353 68.9809 97.6018 68.6819 98.795 68.3777C98.8453 67.6395 98.9035 66.9358 98.9432 66.1791Z" fill="#A5E985"/>
<path d="M60.266 11.4452C60.2713 11.4452 60.2739 11.4452 60.2792 11.4452C60.2766 11.4214 60.2766 11.3949 60.2739 11.3711C60.2686 11.3976 60.266 11.424 60.266 11.4452Z" fill="#A5E985"/>
<path d="M61.5121 0.436615C61.4328 1.10862 61.3455 1.89438 61.2396 2.74894C61.7714 2.75159 62.2873 2.75952 62.8059 2.76746C62.3138 1.82031 61.8772 1.04512 61.5121 0.436615Z" fill="#A5E985"/>
<path d="M94.3132 40.2831C94.4376 41.3149 94.5461 42.3705 94.6492 43.442C95.8954 43.6801 97.1467 43.9182 98.3029 44.1696C98.1891 43.1404 98.0595 42.1324 97.9219 41.1482C96.7737 40.8545 95.5752 40.5635 94.3132 40.2831Z" fill="#A5E985"/>
<path d="M59.2209 21.1814C59.7448 21.1814 60.2581 21.192 60.774 21.1973C60.6999 19.6548 60.6232 18.16 60.5517 16.7419C60.258 16.7393 59.9882 16.7234 59.6919 16.7234C59.5358 18.168 59.3797 19.6601 59.2209 21.1814Z" fill="#A5E985"/>
<path d="M97.0939 83.1113C95.9086 83.4315 94.681 83.7463 93.4005 84.0479C93.2259 85.1009 93.0407 86.1274 92.8502 87.1328C94.1281 86.7676 95.3477 86.3973 96.5092 86.0083C96.705 85.0585 96.9113 84.1246 97.0939 83.1113Z" fill="#A5E985"/>
<path d="M77.3888 113.912C76.8147 114 76.1877 114.066 75.5951 114.143C75.2326 114.812 74.8781 115.447 74.5315 116.034C75.1135 115.876 75.6903 115.714 76.2618 115.537C76.5422 115.164 76.9205 114.622 77.3888 113.912Z" fill="#A5E985"/>
<path d="M82.5743 103.655C81.7859 103.782 80.9896 103.912 80.1747 104.025C79.5979 105.565 79.0159 107.002 78.4338 108.335C79.1905 108.2 79.9842 108.076 80.7038 107.933C81.3123 106.658 81.9394 105.237 82.5743 103.655Z" fill="#A5E985"/>
<path d="M77.2195 32.3513C78.1244 32.4307 79.0027 32.518 79.8705 32.6106C79.5557 30.92 79.2091 29.3167 78.844 27.7637C78.0423 27.6552 77.2301 27.5494 76.3967 27.4542C76.693 29.0178 76.9629 30.6581 77.2195 32.3513Z" fill="#A5E985"/>
<path d="M95.0832 92.0485C93.9561 92.3739 92.7841 92.6861 91.5697 92.9904C91.2761 94.1994 90.9639 95.3741 90.649 96.4932C91.829 96.1837 92.9746 95.8636 94.0461 95.5276C94.398 94.4217 94.7472 93.2761 95.0832 92.0485Z" fill="#A5E985"/>
<path d="M77.3439 95.5381C76.6772 95.6148 76.0158 95.6995 75.3279 95.7656C75.0448 97.017 74.7406 98.205 74.439 99.3532C75.0448 99.295 75.6057 99.2156 76.1983 99.1495C76.5846 97.9933 76.9709 96.8054 77.3439 95.5381Z" fill="#A5E985"/>
<path d="M79.5662 86.4768C78.7434 86.5773 77.9127 86.6699 77.0634 86.7599C76.8729 87.9716 76.6745 89.1568 76.4602 90.3024C77.2513 90.2098 78.0212 90.1119 78.7858 90.0088C79.0556 88.8605 79.3228 87.6991 79.5662 86.4768Z" fill="#A5E985"/>
<path d="M91.7972 101.724C90.8104 101.98 89.8024 102.226 88.752 102.467C88.2732 103.801 87.7969 105.057 87.3154 106.229C88.3393 105.914 89.305 105.594 90.2257 105.264C90.731 104.221 91.2601 103.017 91.7972 101.724Z" fill="#A5E985"/>
<path d="M85.7148 94.2708C84.8735 94.4296 84.0083 94.5804 83.13 94.7259C82.7992 95.9693 82.4606 97.1731 82.1061 98.3187C82.9527 98.1785 83.8231 98.0436 84.6274 97.8901C85.0005 96.7366 85.3629 95.5434 85.7148 94.2708Z" fill="#A5E985"/>
<path d="M87.789 85.2279C86.9291 85.392 86.0507 85.5401 85.1486 85.6883C84.9396 86.8471 84.712 87.9847 84.4766 89.088C85.3734 88.9213 86.2465 88.744 87.0984 88.5615C87.3339 87.4715 87.572 86.3867 87.789 85.2279Z" fill="#A5E985"/>
<path d="M82.1802 58.7261C82.1802 57.7922 82.1299 56.9456 82.1194 56.0381C81.1325 55.9773 80.1192 55.9191 79.0874 55.8661C79.1033 56.8874 79.1192 57.906 79.1192 58.9563C79.1192 59.9537 79.1086 60.9247 79.09 61.8957C80.1272 61.8639 81.1299 61.8374 82.1114 61.7978C82.1273 60.7686 82.1802 59.7897 82.1802 58.7261Z" fill="#A5E985"/>
<path d="M102.033 33.4918C102.256 34.5897 102.449 35.7512 102.644 36.9126C103.809 37.2539 104.904 37.6031 105.954 37.9524C105.713 36.8597 105.457 35.82 105.19 34.8014C104.208 34.3648 103.155 33.9283 102.033 33.4918Z" fill="#A5E985"/>
<path d="M107.944 53.6544C107.923 53.2046 107.912 52.7363 107.888 52.2918C106.751 51.9188 105.518 51.5458 104.203 51.1674C104.235 51.7733 104.245 52.4135 104.264 53.03C105.579 53.2363 106.803 53.4427 107.944 53.6544Z" fill="#A5E985"/>
<path d="M103.475 42.7516C103.578 43.6671 103.692 44.5666 103.782 45.5137C105.047 45.8524 106.261 46.191 107.386 46.535C107.282 45.6566 107.15 44.8312 107.028 43.9898C105.938 43.5824 104.75 43.167 103.475 42.7516Z" fill="#A5E985"/>
<path d="M99.6311 23.9936C99.9565 25.0545 100.277 26.1366 100.581 27.2769C101.47 27.5785 102.327 27.8828 103.15 28.1923C102.75 27.0891 102.335 26.0334 101.92 25.044C101.192 24.6947 100.443 24.3429 99.6311 23.9936Z" fill="#A5E985"/>
<path d="M107.872 65.2769C106.809 65.4144 105.608 65.552 104.261 65.6922C104.245 66.0838 104.221 66.47 104.205 66.859C105.507 66.4515 106.729 66.0388 107.843 65.6367C107.851 65.5176 107.867 65.4038 107.872 65.2769Z" fill="#A5E985"/>
<path d="M107.304 71.4175C106.219 71.7826 105.049 72.1372 103.832 72.497C103.745 73.5156 103.626 74.4574 103.518 75.4363C104.737 74.9786 105.878 74.5209 106.933 74.0659C107.065 73.2034 107.192 72.3277 107.304 71.4175Z" fill="#A5E985"/>
<path d="M111.714 77.7724C111.65 78.1349 111.571 78.4762 111.505 78.8307C113.164 77.6825 114.307 76.7194 114.981 76.0924C114.008 76.6348 112.91 77.1983 111.714 77.7724Z" fill="#A5E985"/>
<path d="M103.182 89.2494C102.507 89.5245 101.808 89.797 101.089 90.0669C100.822 91.1992 100.541 92.2522 100.261 93.3052C100.851 93.0565 101.367 92.8105 101.904 92.5697C102.34 91.522 102.766 90.4108 103.182 89.2494Z" fill="#A5E985"/>
<path d="M105.79 80.3044C104.819 80.6748 103.806 81.0346 102.745 81.397C102.618 82.204 102.499 83.0188 102.359 83.7914C103.383 83.3496 104.343 82.9077 105.237 82.4685C105.417 81.7463 105.613 81.0584 105.79 80.3044Z" fill="#A5E985"/>
<path d="M116.052 75.4891C116.036 75.4943 116.018 75.5047 116.005 75.5125L116.036 75.5386C116.042 75.5229 116.047 75.5047 116.052 75.4891Z" fill="#A5E985"/>
<path d="M113.267 54.7417C114.259 54.9692 115.143 55.1888 115.944 55.3978C115.185 55.046 114.264 54.657 113.251 54.2417C113.256 54.4083 113.259 54.575 113.267 54.7417Z" fill="#A5E985"/>
<path d="M108.068 59.086C106.941 58.8717 105.719 58.6522 104.399 58.4352C104.399 58.5675 104.409 58.6839 104.409 58.8162C104.409 59.3453 104.377 59.8242 104.372 60.348C105.772 60.1946 106.991 60.0517 108.047 59.9089C108.05 59.6258 108.068 59.3718 108.068 59.086Z" fill="#A5E985"/>
<path d="M117.37 61.3137C116.6 61.0756 115.555 60.7767 114.248 60.446L114.873 62.6657C115.96 62.1207 116.778 61.6683 117.37 61.3137Z" fill="#A5E985"/>
<path d="M117.865 67.0654C116.542 67.7506 114.878 68.5364 112.849 69.3698C112.791 69.9915 112.756 70.6556 112.688 71.2641C115.272 69.8275 116.921 68.6395 117.741 67.994C117.788 67.6818 117.825 67.3723 117.865 67.0654Z" fill="#A5E985"/>
<path d="M111.452 86.7228C111.844 85.9926 112.232 85.2465 112.598 84.4951C111.748 85.0269 110.812 85.5746 109.788 86.1328C109.539 86.9979 109.283 87.8075 109.018 88.6224C110.306 87.7308 111.087 87.0641 111.452 86.7228Z" fill="#A5E985"/>
<path d="M109.119 29.1793C109.314 29.7878 109.513 30.3672 109.703 31.0022C110.566 31.4228 111.367 31.8356 112.111 32.243C111.899 31.825 111.693 31.4043 111.471 30.9916C111.087 30.6556 110.312 30.0153 109.119 29.1793Z" fill="#A5E985"/>
<path d="M111.378 37.9603C111.526 38.6931 111.687 39.3995 111.822 40.1615C113.463 40.8599 114.857 41.5319 116.037 42.1431C115.913 41.7198 115.788 41.2965 115.653 40.8758C114.981 40.3255 113.582 39.2646 111.378 37.9603Z" fill="#A5E985"/>
<path d="M117.648 49.1911L117.582 49.2758C117.532 49.2361 116.011 48.0508 112.714 46.4264C112.783 47.0534 112.82 47.736 112.881 48.3815C114.852 49.1144 116.5 49.8049 117.841 50.4213C117.783 50.0113 117.717 49.5985 117.648 49.1911Z" fill="#A5E985"/>
<path d="M66.0812 21.3347C67.2929 21.3876 68.4808 21.4537 69.6502 21.5278C69.256 19.951 68.8486 18.4615 68.4359 17.0566C67.5681 17.0011 66.7506 16.9138 65.8563 16.8714C65.9278 18.2922 66.0018 19.7896 66.0812 21.3347Z" fill="#A5E985"/>
<path d="M66.3379 26.6473C66.4199 28.3088 66.5019 30.0021 66.5813 31.7112C68.3618 31.7694 70.0948 31.8461 71.7748 31.944C71.4917 30.1925 71.1795 28.5337 70.8541 26.9278C69.3857 26.8167 67.8883 26.7161 66.3379 26.6473Z" fill="#A5E985"/>
<path d="M73.6372 67.3299C71.7085 67.3696 69.6819 67.396 67.5866 67.4225C67.5522 69.0972 67.5098 70.8248 67.449 72.6107C69.4862 72.5313 71.4466 72.4228 73.3462 72.2853C73.4573 70.6793 73.5605 69.039 73.6372 67.3299Z" fill="#A5E985"/>
<path d="M65.5838 11.5722C65.933 11.5881 66.2928 11.596 66.6315 11.6146C66.224 10.4796 65.814 9.42129 65.4171 8.44504C65.47 9.3869 65.5229 10.4372 65.5838 11.5722Z" fill="#A5E985"/>
<path d="M73.8251 58.9536C73.8251 57.8054 73.7775 56.7497 73.7642 55.6359C71.7535 55.5671 69.6819 55.5063 67.5231 55.4692C67.5601 56.8265 67.5919 58.107 67.613 59.279C67.6315 60.1785 67.6421 61.1389 67.6421 62.1258C69.7719 62.102 71.8223 62.0702 73.7695 62.0332C73.7828 61.0014 73.8251 60.0225 73.8251 58.9536Z" fill="#A5E985"/>
<path d="M94.6042 74.7802C94.4878 75.9998 94.3529 77.1904 94.2153 78.3598C95.5329 78.0185 96.779 77.6666 97.9775 77.3068C98.1204 76.23 98.2341 75.0897 98.3505 73.9521C97.152 74.2352 95.9006 74.5077 94.6042 74.7802Z" fill="#A5E985"/>
<path d="M74.1452 104.724C73.7219 104.764 73.2827 104.793 72.8541 104.83C72.3276 106.462 71.7985 107.962 71.2667 109.349C71.5525 109.32 71.8064 109.277 72.0922 109.245C72.7615 107.878 73.4468 106.404 74.1452 104.724Z" fill="#A5E985"/>
<path d="M77.4073 22.2263C76.9523 20.668 76.484 19.1944 76.0051 17.8027C75.3913 17.7234 74.7643 17.644 74.1346 17.5726C74.5209 18.9748 74.8913 20.4484 75.2564 21.9988C75.976 22.0702 76.7036 22.1417 77.4073 22.2263Z" fill="#A5E985"/>
<path d="M71.5763 87.2413C70.0259 87.3497 68.4305 87.4344 66.7955 87.5058C66.732 88.7096 66.6659 89.9028 66.5997 91.0828C68.0787 91.022 69.5206 90.9373 70.9201 90.8368C71.1503 89.6779 71.3673 88.4742 71.5763 87.2413Z" fill="#A5E985"/>
<path d="M67.0866 105.192C66.6368 105.211 66.1685 105.224 65.7108 105.24C65.5944 106.925 65.4912 108.388 65.4039 109.613C65.9516 108.288 66.5151 106.83 67.0866 105.192Z" fill="#A5E985"/>
<path d="M72.1716 8.50859C71.8515 8.47948 71.4996 8.46625 71.1742 8.44244C71.6028 9.56421 72.0287 10.7654 72.4547 12.0432C72.9309 12.0908 73.3913 12.1411 73.849 12.1914C73.2828 10.8527 72.7246 9.63565 72.1716 8.50859Z" fill="#A5E985"/>
<path d="M72.87 77.6268C71.0498 77.7485 69.1873 77.8491 67.2533 77.9179C67.1951 79.3386 67.1316 80.7646 67.0654 82.1906C68.8962 82.1139 70.6556 81.9948 72.3832 81.8599C72.5605 80.4947 72.7192 79.0793 72.87 77.6268Z" fill="#A5E985"/>
<path d="M66.285 96.3848C66.2136 97.6044 66.1368 98.7844 66.0627 99.9194C66.9887 99.885 67.883 99.84 68.7746 99.7871C69.0947 98.6389 69.4201 97.4721 69.7297 96.2101C68.6079 96.2816 67.4597 96.3345 66.285 96.3848Z" fill="#A5E985"/>
<path d="M69.0153 114.823C68.9915 114.823 68.9703 114.823 68.9518 114.828C68.875 114.992 68.801 115.135 68.7242 115.293C68.8142 115.153 68.92 114.971 69.0153 114.823Z" fill="#A5E985"/>
<path d="M98.3347 99.7395C98.3056 99.7501 98.2792 99.7633 98.258 99.7712C98.221 99.8717 98.1892 99.967 98.1495 100.065C98.2104 99.9617 98.2765 99.8479 98.3347 99.7395Z" fill="#A5E985"/>
<path d="M75.8093 2.02403C75.4019 1.90498 74.9865 1.78328 74.5791 1.6748C74.9204 2.25685 75.2776 2.87859 75.6374 3.5453C76.103 3.60086 76.5501 3.65907 77.0025 3.71462C76.5343 3.02146 76.1242 2.43941 75.8093 2.02403Z" fill="#A5E985"/>
<path d="M73.6187 50.3367C73.5526 48.8869 73.4573 47.4952 73.3647 46.1115C71.3699 45.9766 69.3195 45.8681 67.1818 45.7914C67.24 47.2915 67.2982 48.7572 67.3458 50.1727C69.5153 50.2123 71.6027 50.2653 73.6187 50.3367Z" fill="#A5E985"/>
<path d="M69.1184 2.98688C68.7824 2.45775 68.4782 1.98682 68.1871 1.56351C68.4094 2.00798 68.6369 2.47891 68.8697 2.97365C68.9517 2.97895 69.0337 2.98159 69.1184 2.98688Z" fill="#A5E985"/>
<path d="M66.8167 37.0104C66.8696 38.1719 66.9198 39.3333 66.9727 40.4842C69.0231 40.553 70.9783 40.6641 72.9044 40.7858C72.7853 39.6164 72.6768 38.4153 72.5366 37.3041C70.6926 37.1824 68.793 37.0792 66.8167 37.0104Z" fill="#A5E985"/>
<path d="M17.0937 33.5234C15.972 33.9838 14.9269 34.4494 13.9454 34.9098C13.6861 35.886 13.4295 36.8623 13.1967 37.9073C14.2417 37.566 15.3344 37.23 16.4879 36.8967C16.6837 35.759 16.8741 34.6002 17.0937 33.5234Z" fill="#A5E985"/>
<path d="M48.2467 109.412C47.7493 107.991 47.2466 106.428 46.7545 104.742C46.2413 104.692 45.7518 104.639 45.2491 104.589C45.9159 106.33 46.5746 107.87 47.2228 109.29C47.5721 109.33 47.8869 109.378 48.2467 109.412Z" fill="#A5E985"/>
<path d="M19.9432 59.1865C19.9432 59.6839 19.9723 60.1231 19.975 60.6072C21.1259 60.7342 22.3693 60.8559 23.7239 60.9723C23.716 60.3532 23.7027 59.7474 23.7027 59.1177C23.7027 58.496 23.7186 57.8954 23.7239 57.2816C22.4196 57.4324 21.1761 57.5806 19.9803 57.7393C19.975 58.2314 19.9432 58.6891 19.9432 59.1865Z" fill="#A5E985"/>
<path d="M44.5454 95.7657C43.7887 95.6916 43.0559 95.6016 42.3177 95.509C42.6538 96.7419 43.0003 97.8981 43.3522 99.0304C43.9951 99.1072 44.6433 99.1865 45.3074 99.2527C45.0454 98.1468 44.7915 96.9747 44.5454 95.7657Z" fill="#A5E985"/>
<path d="M43.0373 86.8761C42.1007 86.7835 41.1695 86.6883 40.2646 86.5825C40.4869 87.7598 40.7303 88.8763 40.9737 89.9875C41.8177 90.1039 42.6802 90.2123 43.5532 90.3129C43.3707 89.2017 43.1987 88.0561 43.0373 86.8761Z" fill="#A5E985"/>
<path d="M52.6729 91.059C52.5671 89.8816 52.4613 88.6964 52.3581 87.5085C51.0247 87.4556 49.7204 87.3894 48.4425 87.3127C48.6171 88.5271 48.8076 89.6991 49.0007 90.8367C50.1992 90.924 51.4268 91.0008 52.6729 91.059Z" fill="#A5E985"/>
<path d="M53.1755 96.3742C52.1146 96.3292 51.0722 96.2763 50.0483 96.2101C50.3156 97.4298 50.5854 98.6018 50.8685 99.713C51.7574 99.7686 52.6014 99.8532 53.5221 99.8903C53.4084 98.7368 53.2919 97.5674 53.1755 96.3742Z" fill="#A5E985"/>
<path d="M51.5934 77.9074C50.1462 77.8519 48.7308 77.7778 47.3497 77.6852C47.4714 79.1535 47.6064 80.5875 47.7545 81.958C49.1091 82.0559 50.4981 82.1326 51.9162 82.2014C51.8024 80.7542 51.6939 79.3229 51.5934 77.9074Z" fill="#A5E985"/>
<path d="M50.0404 114.828C50.641 115.868 51.1781 116.738 51.6172 117.399C51.2363 116.653 50.8315 115.801 50.4082 114.854C50.2865 114.844 50.1621 114.833 50.0404 114.828Z" fill="#A5E985"/>
<path d="M41.0292 108.497C40.4446 107.068 39.8599 105.523 39.2831 103.864C38.1878 103.7 37.1401 103.52 36.1003 103.34C36.7803 105.089 37.4549 106.616 38.1058 107.989C39.037 108.171 40.0265 108.333 41.0292 108.497Z" fill="#A5E985"/>
<path d="M28.1686 96.1492C27.8696 95.0539 27.5759 93.9189 27.2981 92.7389C26.1684 92.4506 25.0758 92.1437 24.0201 91.8341C24.3588 93.0352 24.708 94.1676 25.0652 95.2523C26.0547 95.5592 27.0865 95.8582 28.1686 96.1492Z" fill="#A5E985"/>
<path d="M24.3827 74.4918C23.0969 74.2061 21.856 73.9019 20.6628 73.5923C20.7872 74.8226 20.9274 76.021 21.0782 77.1851C22.2555 77.5503 23.4858 77.9048 24.7742 78.2514C24.6367 77.0291 24.4991 75.7829 24.3827 74.4918Z" fill="#A5E985"/>
<path d="M20.2739 99.3241C20.811 100.277 21.3296 101.144 21.8322 101.914C21.528 101.16 21.2237 100.361 20.9221 99.5411C20.7078 99.467 20.4829 99.3982 20.2739 99.3241Z" fill="#A5E985"/>
<path d="M23.9805 68.8961C23.9302 68.0389 23.8879 67.1738 23.8509 66.2901C22.5069 66.1764 21.2581 66.0573 20.094 65.9383C20.1257 66.6261 20.1839 67.2558 20.2236 67.9278C21.4195 68.2612 22.6762 68.5813 23.9805 68.8961Z" fill="#A5E985"/>
<path d="M26.0573 86.8603C25.8854 85.9184 25.7187 84.9501 25.56 83.9632C24.3244 83.6643 23.1286 83.3547 21.9803 83.0267C22.155 83.9712 22.3481 84.8548 22.5359 85.7544C23.6604 86.138 24.835 86.5058 26.0573 86.8603Z" fill="#A5E985"/>
<path d="M54.5539 109.785C54.3952 108.338 54.2338 106.804 54.0618 105.198C53.5062 105.174 52.9454 105.155 52.3977 105.132C52.9454 106.859 53.493 108.404 54.0248 109.783C54.1968 109.78 54.3846 109.78 54.5539 109.785Z" fill="#A5E985"/>
<path d="M35.3146 89.0641C35.1029 88.0032 34.9018 86.9132 34.7087 85.7967C33.4891 85.6036 32.2985 85.3972 31.1423 85.175C31.3381 86.2809 31.5604 87.2942 31.7747 88.3286C32.9202 88.5879 34.0949 88.8313 35.3146 89.0641Z" fill="#A5E985"/>
<path d="M31.616 106.441C31.0736 105.108 30.5313 103.666 29.9968 102.113C29.0946 101.904 28.248 101.681 27.3961 101.459C28.0893 103.062 28.7745 104.515 29.4254 105.743C30.1318 105.981 30.8382 106.213 31.616 106.441Z" fill="#A5E985"/>
<path d="M37.492 98.1838C37.1772 97.0673 36.8703 95.8953 36.5687 94.6968C35.386 94.4983 34.2352 94.2867 33.1134 94.0645C33.4388 95.2868 33.7722 96.4376 34.1135 97.5488C35.2088 97.7737 36.3305 97.9827 37.492 98.1838Z" fill="#A5E985"/>
<path d="M42.5876 115.635C43.2861 115.841 43.9845 116.042 44.6936 116.225C44.3523 115.606 43.9978 114.934 43.6353 114.217C42.8813 114.124 42.1114 114.034 41.3865 113.928C41.8997 114.703 42.3019 115.272 42.5876 115.635Z" fill="#A5E985"/>
<path d="M0.730225 49.9636C2.11392 49.326 3.95002 48.5588 6.27293 47.736C6.32319 47.2544 6.3523 46.7465 6.40785 46.2755C3.33887 47.7069 1.52128 48.8551 0.841343 49.3234C0.801658 49.5403 0.761973 49.7493 0.730225 49.9636Z" fill="#A5E985"/>
<path d="M56.6044 50.1435C57.824 50.1329 58.9881 50.1091 60.2475 50.1091C60.8613 50.1091 61.4513 50.1144 62.0545 50.117C62.0016 48.6857 61.946 47.2041 61.8878 45.6882C61.0174 45.6776 60.1919 45.6432 59.2977 45.6432C58.4775 45.6432 57.7314 45.6723 56.9324 45.6802C56.8081 47.22 56.6996 48.7122 56.6044 50.1435Z" fill="#A5E985"/>
<path d="M9.7679 30.0972C7.97677 31.3804 6.77563 32.4122 6.13538 33.0154C7.11957 32.4201 8.22017 31.8037 9.41602 31.1846C9.52714 30.801 9.65413 30.4676 9.7679 30.0972Z" fill="#A5E985"/>
<path d="M55.3027 8.16187C55.2524 8.16451 55.2021 8.16451 55.1519 8.16451C54.7497 9.2122 54.3396 10.3419 53.9216 11.5589C54.2523 11.5457 54.5936 11.543 54.927 11.5325C55.0566 10.3604 55.181 9.23337 55.3027 8.16187Z" fill="#A5E985"/>
<path d="M0.645595 67.076C1.38374 67.7084 3.21984 69.1582 6.31793 70.9361C6.24121 70.2059 6.19094 69.4254 6.13009 68.6661C3.86803 67.674 2.00018 66.7348 0.497437 65.9014C0.542413 66.2903 0.592681 66.6792 0.645595 67.076Z" fill="#A5E985"/>
<path d="M0.222277 56.0488L0.137616 55.9139C0.13497 55.9668 0.13497 56.0197 0.132324 56.0753C0.164072 56.0673 0.193175 56.0594 0.222277 56.0488Z" fill="#A5E985"/>
<path d="M9.93192 88.6515C9.64883 87.7494 9.37104 86.8313 9.10647 85.8683C7.82861 85.1884 6.67773 84.5269 5.63269 83.884C6.06658 84.8127 6.52164 85.7254 7.00315 86.625C7.46615 86.998 8.41859 87.715 9.93192 88.6515Z" fill="#A5E985"/>
<path d="M7.34441 40.0398C7.45024 39.4577 7.57194 38.9101 7.6857 38.3439C4.98182 40.0795 3.38912 41.4896 2.73828 42.1219C4.02937 41.4737 5.55858 40.77 7.34441 40.0398Z" fill="#A5E985"/>
<path d="M7.46354 78.7195C7.38417 78.2935 7.28893 77.8967 7.2122 77.4628C5.28085 76.5051 3.62201 75.5711 2.24097 74.7192C2.24626 74.743 2.25155 74.7642 2.25949 74.7827C2.98705 75.468 4.68293 76.931 7.46354 78.7195Z" fill="#A5E985"/>
<path d="M5.73057 62.5861L5.78613 62.4671C5.76232 61.7025 5.73057 60.9537 5.72528 60.168C4.49504 60.4431 3.40237 60.6997 2.52136 60.922C3.39708 61.422 4.49504 61.9882 5.73057 62.5861Z" fill="#A5E985"/>
<path d="M11.1278 53.6887C12.276 53.4903 13.501 53.2919 14.8027 53.0908C14.8371 52.2601 14.8767 51.4399 14.927 50.6303C13.6121 50.9822 12.3819 51.3314 11.2548 51.678C11.2125 52.3447 11.1622 53.0035 11.1278 53.6887Z" fill="#A5E985"/>
<path d="M14.8132 66.2637C14.8 65.9542 14.8027 65.6102 14.7921 65.2954C13.3819 65.0943 12.1755 64.8933 11.1357 64.6948C11.141 64.7715 11.1384 64.8562 11.1437 64.9303C12.2813 65.3748 13.5063 65.8192 14.8132 66.2637Z" fill="#A5E985"/>
<path d="M17.0012 25.7425C16.6864 26.5019 16.3795 27.3379 16.0699 28.1633C16.8795 27.8432 17.7314 27.531 18.6045 27.2215C18.8532 26.314 19.1072 25.4462 19.3691 24.5917C18.5384 24.9753 17.7526 25.3563 17.0012 25.7425Z" fill="#A5E985"/>
<path d="M11.8103 45.9792C12.9188 45.6617 14.0988 45.3495 15.3502 45.0374C15.4296 44.241 15.546 43.5187 15.6386 42.7488C14.3713 43.1483 13.1913 43.5478 12.0934 43.9473C11.9929 44.614 11.8976 45.286 11.8103 45.9792Z" fill="#A5E985"/>
<path d="M10.9902 59.2844C11.9479 59.4855 13.1596 59.7024 14.6729 59.9352C14.6703 59.676 14.6544 59.4431 14.6544 59.1865C14.6544 58.9484 14.6703 58.7315 14.6729 58.4933C13.358 58.6997 12.1278 58.9061 10.9849 59.1124C10.9849 59.1759 10.9902 59.2289 10.9902 59.2844Z" fill="#A5E985"/>
<path d="M15.5249 75.2669C15.4085 74.2086 15.2974 73.1424 15.2022 72.0365C13.9402 71.6396 12.7549 71.2348 11.6226 70.8327C11.7416 71.8725 11.8977 72.8328 12.0432 73.8197C13.1227 74.3038 14.2841 74.788 15.5249 75.2669Z" fill="#A5E985"/>
<path d="M18.869 93.0855C18.5753 92.0325 18.279 90.9743 18.0038 89.834C17.1784 89.5271 16.3873 89.2149 15.6174 88.8974C16.0249 90.0748 16.4482 91.1833 16.8794 92.2442C17.5117 92.5247 18.1679 92.7998 18.869 93.0855Z" fill="#A5E985"/>
<path d="M16.7076 83.5454C16.5726 82.8019 16.4456 82.032 16.3213 81.2568C15.2233 80.8706 14.1624 80.487 13.1624 80.0954C13.3184 80.8097 13.4851 81.4817 13.6571 82.1643C14.6095 82.6247 15.6228 83.085 16.7076 83.5454Z" fill="#A5E985"/>
<path d="M5.81 54.7022C5.82323 54.3238 5.82323 53.9296 5.84175 53.5566C2.99499 54.6704 1.31234 55.5541 0.64563 55.9324C1.97376 55.5779 3.66171 55.1599 5.81 54.7022Z" fill="#A5E985"/>
<path d="M50.9876 55.5196C49.5483 55.554 48.1382 55.5937 46.7624 55.6413C46.7175 57.3425 46.6646 59.0225 46.6646 60.8057C46.6646 61.2343 46.6725 61.6417 46.6751 62.0729C48.0244 62.0994 49.4055 62.1259 50.8447 62.1391C50.8368 61.1893 50.8368 60.2739 50.8527 59.4378C50.8738 58.2499 50.9214 56.9297 50.9876 55.5196Z" fill="#A5E985"/>
<path d="M53.8846 21.2448C54.0433 19.7447 54.1968 18.2711 54.3502 16.8398C53.6571 16.8662 52.9242 16.8609 52.2469 16.898C51.8474 18.2975 51.4532 19.7844 51.0696 21.348C51.9929 21.3083 52.9348 21.2739 53.8846 21.2448Z" fill="#A5E985"/>
<path d="M51.6093 45.7675C50.088 45.8152 48.6673 45.8998 47.2201 45.9739C47.1143 47.3735 47.0481 48.8709 46.9688 50.3366C48.3842 50.289 49.8076 50.244 51.2918 50.2123C51.3844 48.7863 51.4929 47.2994 51.6093 45.7675Z" fill="#A5E985"/>
<path d="M48.9266 31.8646C50.2019 31.8011 51.5088 31.7456 52.8396 31.7032C53.0036 29.9835 53.173 28.2639 53.3423 26.5627C52.1597 26.6024 50.9982 26.6553 49.8659 26.7214C49.5351 28.3591 49.2256 30.0788 48.9266 31.8646Z" fill="#A5E985"/>
<path d="M40.0344 32.5366C41.1509 32.4229 42.2938 32.3197 43.4606 32.2244C43.7357 30.4545 44.04 28.7771 44.3495 27.1421C43.2251 27.2532 42.1245 27.3776 41.053 27.5125C40.6906 29.1158 40.3493 30.7825 40.0344 32.5366Z" fill="#A5E985"/>
<path d="M52.3422 37.0157C50.8897 37.0686 49.5299 37.1585 48.1435 37.2379C48.0007 38.3464 47.8631 39.4629 47.7361 40.6217C49.1356 40.5556 50.5749 40.5027 52.0406 40.4603C52.1411 39.3253 52.239 38.1745 52.3422 37.0157Z" fill="#A5E985"/>
<path d="M42.4236 22.0174C43.4237 21.9089 44.4449 21.811 45.4846 21.7237C45.8365 20.2024 46.2016 18.7632 46.5694 17.3768C45.5905 17.4827 44.6645 17.6202 43.7253 17.7499C43.2834 19.0965 42.8469 20.512 42.4236 22.0174Z" fill="#A5E985"/>
<path d="M42.0717 4.11665C42.614 4.03463 43.1484 3.94997 43.7067 3.87324C44.1829 2.96048 44.6406 2.13239 45.0771 1.38101C44.6538 1.48419 44.2332 1.59531 43.8099 1.70908C43.495 2.0927 42.8733 2.90757 42.0717 4.11665Z" fill="#A5E985"/>
<path d="M45.802 12.1278C46.5587 12.0485 47.3709 11.9982 48.1514 11.9294C48.5376 10.7283 48.9213 9.61709 49.3049 8.55353C48.5932 8.61702 47.9476 8.71227 47.2624 8.78635C46.7809 9.81023 46.2967 10.9241 45.802 12.1278Z" fill="#A5E985"/>
<path d="M51.2443 72.5896C51.1384 70.7984 51.0511 69.0681 50.9823 67.4305C49.5272 67.4146 48.133 67.3881 46.7651 67.367C46.8181 69.0655 46.8815 70.7296 46.9689 72.3276C48.3764 72.4202 49.7733 72.5234 51.2443 72.5896Z" fill="#A5E985"/>
<path d="M59.7898 91.2283C60.2977 91.2283 60.7845 91.215 61.2819 91.2098C61.3481 90.0351 61.4195 88.8392 61.483 87.6302C60.7554 87.6381 60.0358 87.654 59.2897 87.654C58.7447 87.654 58.2235 87.6407 57.6891 87.6354C57.7923 88.8286 57.8981 90.0166 58.0092 91.2045C58.6071 91.215 59.1839 91.2283 59.7898 91.2283Z" fill="#A5E985"/>
<path d="M50.2045 3.18805C50.6119 3.1563 51.0352 3.13249 51.4532 3.10338C51.9533 1.94722 52.4321 0.888949 52.8687 0C52.665 0.0238111 52.4612 0.0555593 52.2575 0.0793704C51.7787 0.719625 51.0617 1.76731 50.2045 3.18805Z" fill="#A5E985"/>
<path d="M59.2924 82.3653C60.1284 82.3653 60.9354 82.3494 61.7529 82.3362C61.819 80.8996 61.8878 79.4683 61.9434 78.0422C61.0862 78.0528 60.2343 78.0661 59.3506 78.0661C58.5225 78.0661 57.7235 78.0502 56.9139 78.037C57.0171 79.4524 57.1282 80.889 57.2447 82.3415C57.9299 82.3494 58.5992 82.3653 59.2924 82.3653Z" fill="#A5E985"/>
<path d="M56.144 59.5357C56.1281 60.3505 56.1281 61.2448 56.1387 62.1734C57.0171 62.176 57.8928 62.1813 58.8029 62.1813C60.0094 62.1813 61.184 62.1787 62.3428 62.1734C62.3428 61.1998 62.3376 60.2606 62.3164 59.3822C62.2926 58.1625 62.2608 56.8212 62.2211 55.411C61.5624 55.4057 60.9168 55.4005 60.2448 55.4005C58.877 55.4005 57.6071 55.4269 56.2922 55.4375C56.2207 56.927 56.1678 58.3081 56.144 59.5357Z" fill="#A5E985"/>
<path d="M59.3506 72.7747C60.3189 72.7747 61.2052 72.735 62.1524 72.7245C62.2079 70.9095 62.2556 69.1528 62.2926 67.4648C61.1497 67.4701 59.9962 67.4728 58.8082 67.4728C57.9484 67.4728 57.1229 67.4675 56.2896 67.4648C56.3583 69.129 56.4562 70.891 56.5647 72.7139C57.4986 72.7297 58.3876 72.7747 59.3506 72.7747Z" fill="#A5E985"/>
<path d="M36.6877 22.7608C37.0475 21.3613 37.4179 20.0199 37.8015 18.7368C36.8279 18.9272 35.8199 19.1072 34.8913 19.3215C34.4653 20.5755 34.0473 21.8825 33.6399 23.2767C34.632 23.0942 35.648 22.9222 36.6877 22.7608Z" fill="#A5E985"/>
<path d="M35.0659 5.43956C35.214 5.16705 35.3595 4.8972 35.5051 4.64056C35.1982 4.77814 34.8913 4.91572 34.5844 5.05594L34.9547 5.42369C34.9521 5.42633 34.9177 5.46602 34.9071 5.47395C34.96 5.46073 35.0156 5.45014 35.0659 5.43956Z" fill="#A5E985"/>
<path d="M61.1655 117.992C61.5518 117.407 62.1259 116.473 62.8482 115.114C62.0545 115.132 61.2952 115.166 60.4777 115.169C60.5967 116.225 60.7052 117.177 60.7978 117.997C60.9221 118 61.0412 117.997 61.1655 117.992Z" fill="#A5E985"/>
<path d="M41.8944 46.3127C40.688 46.4079 39.4445 46.4899 38.2989 46.5984C38.1957 47.9609 38.0873 49.3049 38.0211 50.7336C39.1826 50.6648 40.4366 50.6119 41.6536 50.5563C41.7251 49.1197 41.7965 47.6911 41.8944 46.3127Z" fill="#A5E985"/>
<path d="M28.6184 15.4482C29.3142 15.2471 30.0656 15.0645 30.7932 14.874C31.2218 13.7311 31.653 12.6596 32.0842 11.641C31.4731 11.813 30.8963 11.9903 30.3196 12.1675C29.7693 13.1491 29.2005 14.2391 28.6184 15.4482Z" fill="#A5E985"/>
<path d="M33.8673 80.2594C33.6954 78.9392 33.5366 77.5767 33.3938 76.1903C32.1741 76.0051 30.9915 75.8041 29.8353 75.5924C29.9755 76.9311 30.1052 78.2936 30.2692 79.5609C31.4307 79.807 32.6318 80.0398 33.8673 80.2594Z" fill="#A5E985"/>
<path d="M24.7266 25.3033C25.7081 25.0308 26.7135 24.7688 27.7585 24.5149C28.0707 23.3084 28.3935 22.1311 28.7268 21.0146C27.7585 21.3136 26.7849 21.6178 25.8801 21.9353C25.4885 23.0042 25.1022 24.118 24.7266 25.3033Z" fill="#A5E985"/>
<path d="M32.9176 70.7164C32.833 69.4623 32.7589 68.1897 32.7033 66.8828C31.4678 66.8219 30.2931 66.7531 29.1608 66.6817C29.2137 67.8537 29.3089 68.9411 29.3804 70.0708C30.5365 70.2904 31.6927 70.5126 32.9176 70.7164Z" fill="#A5E985"/>
<path d="M22.1497 35.4363C23.2661 35.177 24.4091 34.9257 25.6076 34.6823C25.8563 33.1928 26.1235 31.7667 26.4066 30.3804C25.2451 30.6979 24.126 31.0259 23.0571 31.3646C22.7396 32.6769 22.4327 34.0156 22.1497 35.4363Z" fill="#A5E985"/>
<path d="M24.4938 43.1113C24.589 42.1694 24.6895 41.2329 24.798 40.3228C23.5466 40.5979 22.3322 40.8783 21.1867 41.1694C21.065 42.0186 20.9618 42.9076 20.856 43.7912C22.0148 43.5584 23.2371 43.3309 24.4938 43.1113Z" fill="#A5E985"/>
<path d="M28.994 59.1177C28.994 59.8982 29.0337 60.6072 29.0443 61.3745C30.1581 61.4433 31.3275 61.5173 32.5551 61.5808C32.5419 60.6786 32.5234 59.7871 32.5234 58.8717C32.5234 58.0436 32.5419 57.2419 32.5525 56.4297C31.3302 56.5276 30.1978 56.6361 29.0496 56.7419C29.039 57.5409 28.994 58.2922 28.994 59.1177Z" fill="#A5E985"/>
<path d="M21.7661 17.763C22.155 16.7974 22.5439 15.8529 22.9328 14.9824C22.2979 15.8581 21.602 16.8926 20.856 18.1202C21.1549 18.0011 21.4618 17.8821 21.7661 17.763Z" fill="#A5E985"/>
<path d="M42.3891 81.4738C42.2463 80.1033 42.1166 78.6984 42.0029 77.2513C40.9287 77.1481 39.8731 77.0396 38.8386 76.9153C39.0027 78.3413 39.1667 79.7567 39.3625 81.106C40.3493 81.2383 41.3573 81.36 42.3891 81.4738Z" fill="#A5E985"/>
<path d="M41.651 71.862C41.5742 70.3619 41.516 68.8142 41.471 67.2321C40.2884 67.195 39.1349 67.1606 38.0264 67.1183C38.0978 68.6263 38.2089 70.0682 38.32 71.5101C39.3889 71.645 40.5371 71.7429 41.651 71.862Z" fill="#A5E985"/>
<path d="M33.7218 38.6851C32.5419 38.8597 31.4148 39.0502 30.3036 39.2433C30.1687 40.2116 30.0655 41.2434 29.9491 42.2514C31.0576 42.0953 32.1979 41.9498 33.37 41.807C33.4784 40.7487 33.5948 39.7063 33.7218 38.6851Z" fill="#A5E985"/>
<path d="M20.1125 52.3554C21.3031 52.202 22.5677 52.0618 23.8615 51.9189C23.9117 50.7892 23.9726 49.6833 24.0414 48.5959C22.7476 48.8367 21.5121 49.0854 20.3348 49.3367C20.2581 50.3474 20.1602 51.3104 20.1125 52.3554Z" fill="#A5E985"/>
<path d="M39.1693 37.9734C39.0264 39.0211 38.918 40.1482 38.7963 41.2409C39.9604 41.135 41.1536 41.0371 42.3759 40.9498C42.4896 39.8333 42.5955 38.7036 42.7277 37.6321C41.524 37.7406 40.3149 37.8438 39.1693 37.9734Z" fill="#A5E985"/>
<path d="M37.8147 58.8664C37.8147 59.8876 37.865 60.8242 37.8782 61.8163C39.0105 61.8613 40.1667 61.8983 41.3811 61.9354C41.3784 61.5517 41.3705 61.1893 41.3705 60.7977C41.3705 59.0939 41.4261 57.4959 41.4631 55.8635C40.2487 55.9244 39.0317 55.9852 37.8755 56.054C37.865 57.0038 37.8147 57.8954 37.8147 58.8664Z" fill="#A5E985"/>
<path d="M29.1871 51.395C30.3354 51.2918 31.4756 51.1887 32.6927 51.0987C32.7482 49.7759 32.8197 48.4768 32.9043 47.2069C31.7005 47.3604 30.5735 47.527 29.4411 47.699C29.3538 48.9187 29.2506 50.1172 29.1871 51.395Z" fill="#A5E985"/>
<path d="M37.156 13.4294C38.0026 13.2654 38.8387 13.104 39.717 12.9558C40.1483 11.7891 40.5822 10.6964 41.0161 9.65137C40.2276 9.78894 39.4472 9.92387 38.6984 10.072C38.1958 11.0959 37.6799 12.215 37.156 13.4294Z" fill="#A5E985"/>
<path d="M31.2006 33.6743C32.2721 33.505 33.378 33.3436 34.505 33.1875C34.7802 31.5154 35.0844 29.9174 35.3993 28.3671C34.296 28.5602 33.2219 28.7666 32.1768 28.9835C31.8329 30.4863 31.5022 32.0393 31.2006 33.6743Z" fill="#A5E985"/>
</svg>
