<svg width="28" height="67" viewBox="0 0 28 67" fill="none" xmlns="http://www.w3.org/2000/svg">
<path d="M65.4159 31.3186C63.3108 32.7101 53.9669 38.0207 33.9589 38.0207C14.0423 38.0207 3.90918 32.6873 1.58427 31.28C1.58141 31.497 1.56714 31.7125 1.56714 31.9294C1.56714 32.8357 1.61424 33.7277 1.68988 34.614C5.9301 36.8133 16.1688 40.8751 33.9575 40.8751C51.455 40.8751 61.1899 36.936 65.3031 34.7039C65.3816 33.7891 65.4316 32.8657 65.4316 31.9323C65.4344 31.7253 65.423 31.5212 65.4159 31.3186Z" fill="#A5E985"/>
<path d="M2.88314 40.4298L2.76611 40.5668L2.76897 40.5697C3.16716 41.9912 3.66097 43.3713 4.24327 44.7029C8.77606 47.2033 18.2812 51.0254 34.0361 51.0254C48.7634 51.0254 57.8219 47.6886 62.5331 45.2052C63.1739 43.808 63.7176 42.3565 64.1572 40.8594C61.9864 42.4422 52.8481 48.171 34.0375 48.171C12.297 48.171 2.97306 40.5083 2.88314 40.4298Z" fill="#A5E985"/>
<path d="M64.414 23.92C64.1614 22.9495 63.8631 21.9961 63.5277 21.0627C61.3926 22.6855 53.5059 27.438 34.4942 27.438C15.4867 27.438 6.13565 22.5913 3.51388 20.9514C3.17706 21.8691 2.88449 22.8082 2.6333 23.7644C6.2955 25.9081 16.039 30.2924 34.4927 30.2924C52.3256 30.2924 61.0059 26.1721 64.414 23.92Z" fill="#A5E985"/>
<path d="M7.57983 50.5457C9.3253 52.9677 11.399 55.137 13.7368 56.9853C18.3695 58.7079 25.0702 60.2721 34.23 60.2721C42.4007 60.2721 48.4135 58.9719 52.7251 57.4091C55.354 55.421 57.6618 53.0348 59.5685 50.3402C58.6037 51.2679 51.5434 57.4177 34.23 57.4177C16.8509 57.4163 8.73444 51.4677 7.57983 50.5457Z" fill="#A5E985"/>
<path d="M34.3871 3.29541C38.6715 3.13984 41.5759 2.07515 42.9674 1.43291C41.0293 0.830632 39.0084 0.409607 36.9318 0.186963C35.8043 0.0670785 34.6611 0 33.5022 0C32.3762 0 31.2672 0.0613697 30.1683 0.175546C28.0332 0.398189 25.9595 0.830632 23.9685 1.45432C25.3029 1.99808 28.9994 3.30825 33.5393 3.30825C33.8191 3.30968 34.1031 3.30683 34.3871 3.29541Z" fill="#A5E985"/>
<path d="M34.4827 64.1328C33.0069 64.1799 31.6168 64.06 30.3638 63.8645C28.2287 64.0871 26.1549 64.5224 24.1611 65.1461C25.4998 65.687 29.1949 67.0001 33.7362 67.0001C34.0145 67.0001 34.3 66.9943 34.584 66.9829C38.8699 66.8302 41.7728 65.7641 43.1658 65.1233C41.2262 64.5167 39.2053 64.0986 37.1258 63.8773C36.3195 63.9987 35.4546 64.0986 34.4827 64.1328Z" fill="#A5E985"/>
<path d="M53.1134 6.76068C52.3098 6.13556 51.4778 5.54756 50.6215 4.99951C48.1438 6.58799 43.0487 8.83583 34.036 8.83583C25.0489 8.83583 19.1988 6.71501 16.1203 5.16792C15.2311 5.74737 14.3691 6.36963 13.5442 7.03327C16.527 8.77874 23.1336 11.6917 34.0345 11.6917C44.827 11.6888 50.5687 8.65886 53.1134 6.76068Z" fill="#A5E985"/>
<path d="M60.2395 14.506C59.7171 13.7082 59.1576 12.9361 58.5696 12.1896C56.0264 14.1021 48.8104 18.2552 34.0303 18.2552C20.2464 18.2552 12.2213 14.055 8.80881 11.7101C8.20083 12.4494 7.62709 13.2186 7.08618 14.0122C10.8297 16.6354 19.343 21.1096 34.0303 21.1096C49.3542 21.1096 57.1824 16.7838 60.2395 14.506Z" fill="#A5E985"/>
</svg>
