<svg width="25" height="25" viewBox="0 0 25 25" fill="none" xmlns="http://www.w3.org/2000/svg">
<path d="M22.9167 0H2.08335C0.91665 0 0 0.91665 0 2.08335V22.9167C0 24.0834 0.91665 25 2.08335 25H11.6667H16.6667H22.9167C24.0834 25 25 24.0833 25 22.9167V2.08335C25 0.91665 24.0833 0 22.9167 0ZM12.5 24.1667V15.8333H9.16665V12.5H12.5V9.58335C12.5 7.20835 14.3334 5.20835 16.6667 5H20.4167V8.33335H17.0833C16.375 8.33335 15.8333 8.875 15.8333 9.58335V12.5H20V15.8333H15.8333V24.1667H12.5V24.1667ZM24.1667 22.9167C24.1667 23.625 23.625 24.1667 22.9167 24.1667H16.6667V16.6667H20.8333V11.6667H16.6667V9.5833C16.6667 9.3333 16.8333 9.16665 17.0833 9.16665H21.25V4.16665H16.625C13.8334 4.41665 11.6667 6.79165 11.6667 9.5833V11.6667H8.3333V16.6667H11.6667V24.1667H2.08335C1.375 24.1667 0.83335 23.625 0.83335 22.9167V2.08335C0.83335 1.375 1.375 0.83335 2.08335 0.83335H22.9167C23.625 0.83335 24.1667 1.375 24.1667 2.08335V22.9167H24.1667Z" fill="white"/>
</svg>
