<svg width="35" height="35" viewBox="0 0 35 35" fill="none" xmlns="http://www.w3.org/2000/svg">
<path d="M30.745 7.35422L29.9237 6.53293L24.1886 0.797155C24.188 0.796552 24.188 0.796552 24.188 0.796552L23.7227 0.331293C23.5085 0.117672 23.2243 0 22.9219 0H5.40866C4.69236 0 3.92236 0.552759 3.92236 1.76569V23.5345V33.5137V33.7931C3.92236 34.2982 4.42986 34.79 5.03029 34.9451C5.06107 34.9535 5.09064 34.965 5.12202 34.971C5.21616 34.9897 5.3121 35 5.40866 35H29.5912C29.6878 35 29.7837 34.9897 29.8779 34.971C29.9093 34.965 29.9388 34.9535 29.9696 34.9451C30.57 34.79 31.0775 34.2982 31.0775 33.7931V33.5137V23.5345V8.435C31.0775 7.97216 31.0214 7.63 30.745 7.35422ZM23.8362 2.15129L28.9262 7.24138H23.8362V2.15129ZM5.40866 33.7931C5.36581 33.7931 5.32719 33.778 5.28917 33.7635C5.19564 33.7189 5.12926 33.6247 5.12926 33.5137V24.7414H29.8706V33.5137C29.8706 33.6247 29.8043 33.7189 29.7107 33.7635C29.6727 33.778 29.6341 33.7931 29.5912 33.7931H5.40866ZM5.12926 23.5345V1.76569C5.12926 1.63474 5.14917 1.2069 5.40866 1.2069H22.6643C22.6443 1.28293 22.6293 1.36138 22.6293 1.44284V8.44828H29.6341C29.7156 8.44828 29.794 8.43319 29.87 8.41328C29.87 8.42233 29.8706 8.42595 29.8706 8.435V23.5345H5.12926Z" fill="#A5E985"/>
<path d="M10.1464 29.1707H7.51473V26.5059H6.50818V32.5862H7.51473V29.8472H10.1464V32.5862H11.1366V26.5059H10.1464V29.1707Z" fill="#A5E985"/>
<path d="M12.3333 27.1823H14.1478V32.5862H15.1465V27.1823H16.9611V26.5059H12.3333V27.1823Z" fill="#A5E985"/>
<path d="M20.9546 30.6636L19.1473 26.5059H18.1414V32.5862H19.1473V28.4031L20.5171 31.786H21.3915L22.7529 28.4031V32.5862H23.7595V26.5059H22.7529L20.9546 30.6636Z" fill="#A5E985"/>
<path d="M26.2922 26.5059H25.2856V32.5862H29.0892V31.8355H26.2922V26.5059Z" fill="#A5E985"/>
<path d="M14.6076 10.4354C14.3716 10.1994 13.9903 10.1994 13.7543 10.4354L10.1336 14.0561C9.89768 14.292 9.89768 14.6734 10.1336 14.9094L13.7543 18.53C13.872 18.6477 14.0265 18.7069 14.181 18.7069C14.3354 18.7069 14.4899 18.6477 14.6076 18.53C14.8435 18.2941 14.8435 17.9127 14.6076 17.6768L11.4135 14.4827L14.6076 11.2887C14.8435 11.0527 14.8435 10.6713 14.6076 10.4354Z" fill="#A5E985"/>
<path d="M21.849 10.4354C21.613 10.1994 21.2316 10.1994 20.9957 10.4354C20.7597 10.6713 20.7597 11.0527 20.9957 11.2887L24.1897 14.4827L20.9957 17.6768C20.7597 17.9127 20.7597 18.2941 20.9957 18.53C21.1134 18.6477 21.2678 18.7069 21.4223 18.7069C21.5768 18.7069 21.7313 18.6477 21.849 18.53L25.4697 14.9094C25.7056 14.6734 25.7056 14.292 25.4697 14.0561L21.849 10.4354Z" fill="#A5E985"/>
</svg>
