<svg width="25" height="25" viewBox="0 0 25 25" fill="none" xmlns="http://www.w3.org/2000/svg">
<path d="M18.2327 0H6.76726C3.03573 0 0 3.03573 0 6.76726V18.2329C0 21.9642 3.03573 25 6.76726 25H18.2329C21.9642 25 25 21.9642 25 18.2329V6.76726C25 3.03573 21.9642 0 18.2327 0V0ZM23.5344 18.2329C23.5344 21.1561 21.1561 23.5344 18.2327 23.5344H6.76726C3.84387 23.5344 1.4656 21.1561 1.4656 18.2329V6.76726C1.4656 3.84387 3.84387 1.4656 6.76726 1.4656H18.2329C21.1561 1.4656 23.5344 3.84387 23.5344 6.76726V18.2329Z" fill="white"/>
<path d="M12.5 5.66425C8.73074 5.66425 5.66431 8.73068 5.66431 12.5C5.66431 16.2693 8.73074 19.3357 12.5 19.3357C16.2693 19.3357 19.3358 16.2693 19.3358 12.5C19.3358 8.73068 16.2693 5.66425 12.5 5.66425ZM12.5 17.8701C9.53908 17.8701 7.12991 15.4611 7.12991 12.5C7.12991 9.53902 9.53908 7.12985 12.5 7.12985C15.4612 7.12985 17.8702 9.53902 17.8702 12.5C17.8702 15.4611 15.4612 17.8701 12.5 17.8701Z" fill="white"/>
<path d="M19.4991 3.23657C18.3852 3.23657 17.4792 4.14275 17.4792 5.25645C17.4792 6.37034 18.3852 7.27652 19.4991 7.27652C20.613 7.27652 21.5192 6.37034 21.5192 5.25645C21.5192 4.14256 20.613 3.23657 19.4991 3.23657ZM19.4991 5.81073C19.1936 5.81073 18.9449 5.56201 18.9449 5.25645C18.9449 4.9507 19.1936 4.70218 19.4991 4.70218C19.8049 4.70218 20.0536 4.9507 20.0536 5.25645C20.0536 5.56201 19.8049 5.81073 19.4991 5.81073Z" fill="white"/>
</svg>
