<svg width="25" height="25" viewBox="0 0 25 25" fill="none" xmlns="http://www.w3.org/2000/svg">
<g clip-path="url(#clip0)">
<path d="M18.0885 0.159361C18.3043 -0.0491249 18.6483 -0.0431144 18.8568 0.172707C19.0601 0.383281 19.0601 0.717072 18.8568 0.927596L7.28815 12.4973L18.8578 24.0659C19.0737 24.2744 19.0796 24.6183 18.8712 24.8342C18.6627 25.05 18.3188 25.0559 18.1029 24.8475C18.0984 24.8431 18.0939 24.8387 18.0895 24.8342L6.13625 12.8809C5.92415 12.6687 5.92415 12.3248 6.13625 12.1126L18.0885 0.159361Z" fill="#F44336"/>
<path d="M18.4733 24.9939C18.7733 24.9945 19.017 24.7516 19.0176 24.4515C19.0178 24.3069 18.9604 24.1681 18.8579 24.0659L7.28826 12.4973L18.8579 0.928701C19.0704 0.716241 19.0704 0.371804 18.8579 0.159344C18.6455 -0.0531148 18.301 -0.0531148 18.0886 0.159344L6.13529 12.1126C5.92319 12.3248 5.92319 12.6687 6.13529 12.8809L18.0886 24.8342C18.1905 24.9364 18.3289 24.9939 18.4733 24.9939Z" fill="white"/>
</g>
<defs>
<clipPath id="clip0">
<rect width="25" height="25" fill="white" transform="matrix(-1 0 0 1 25 0)"/>
</clipPath>
</defs>
</svg>
