<svg width="32" height="32" viewBox="0 0 32 32" fill="none" xmlns="http://www.w3.org/2000/svg">
<path d="M17.9382 17.2747C18.1021 17.0257 18.213 16.7518 18.2709 16.4692H25.3026C25.9092 16.4692 25.9092 15.5308 25.3026 15.5308H18.2709C18.21 15.2339 18.0907 14.9468 17.913 14.6879L20.0538 12.5471C20.4827 12.1182 19.8193 11.4548 19.3903 11.8836L17.2366 14.0373C16.9979 13.8869 16.7375 13.7841 16.4692 13.7291V0.45495C16.4692 -0.15165 15.5308 -0.15165 15.5308 0.45495V13.729C15.2482 13.787 14.9743 13.8979 14.7253 14.0618L12.5471 11.8836C12.1181 11.4547 11.4546 12.1181 11.8836 12.547L14.0618 14.7252C13.898 14.9742 13.787 15.2481 13.7291 15.5308H6.69738C6.09078 15.5308 6.09078 16.4691 6.69738 16.4691H13.7291C13.7841 16.7374 13.8869 16.9978 14.0373 17.2365L11.8837 19.3902C11.4547 19.8191 12.1182 20.4825 12.5472 20.0536L14.688 17.9129C14.9468 18.0906 15.234 18.2099 15.5308 18.2707V31.5449C15.5308 32.1515 16.4692 32.1515 16.4692 31.5449V18.2709C16.7518 18.2129 17.0257 18.102 17.2747 17.9381L19.3903 20.0538C19.8193 20.4826 20.4829 19.8192 20.0539 19.3903L17.9382 17.2747ZM15.0234 16.9767C14.4848 16.4381 14.4848 15.5618 15.0234 15.0233C15.5507 14.496 16.4482 14.4948 16.9767 15.0233C17.5152 15.5618 17.5152 16.4381 16.9767 16.9767C16.4382 17.5151 15.5618 17.5151 15.0234 16.9767Z" fill="white"/>
<path d="M29.6788 15.5308H27.7604C27.1538 15.5308 27.1538 16.4692 27.7604 16.4692H29.6788C30.2854 16.4692 30.2854 15.5308 29.6788 15.5308Z" fill="white"/>
<path d="M4.23955 15.5308H2.32116C1.71456 15.5308 1.71456 16.4692 2.32116 16.4692H4.23955C4.84615 16.4692 4.84615 15.5308 4.23955 15.5308Z" fill="white"/>
<path d="M25.3406 5.99585L21.2669 10.0695C20.838 10.4985 21.5015 11.1619 21.9305 10.733L26.0041 6.65932C26.4331 6.23037 25.7696 5.56697 25.3406 5.99585Z" fill="white"/>
<path d="M10.196 21.1403L5.99569 25.3406C5.56675 25.7696 6.23021 26.433 6.65922 26.0041L10.8596 21.8037C11.2885 21.3748 10.6251 20.7114 10.196 21.1403Z" fill="white"/>
<path d="M10.1961 10.8597C10.6251 11.2885 11.2886 10.6251 10.8596 10.1962L6.65925 5.99585C6.23024 5.56697 5.56671 6.23037 5.99572 6.65932L10.1961 10.8597Z" fill="white"/>
<path d="M21.9305 21.267C21.5015 20.8381 20.838 21.5015 21.267 21.9304L25.3406 26.0041C25.7696 26.433 26.4332 25.7696 26.0042 25.3406L21.9305 21.267Z" fill="white"/>
</svg>
