<svg width="35" height="35" viewBox="0 0 35 35" fill="none" xmlns="http://www.w3.org/2000/svg">
<g clip-path="url(#clip0)">
<path d="M6.15582 27.0668C5.66582 27.0668 5.19478 27.1891 4.77688 27.4188C2.57549 24.5968 1.36719 21.0913 1.36719 17.5C1.36719 8.6042 8.6042 1.36719 17.5 1.36719C18.5815 1.36719 19.6624 1.4748 20.7129 1.68709C21.0825 1.76186 21.4435 1.5226 21.5182 1.1525C21.593 0.782394 21.3538 0.421906 20.9837 0.34687C19.8442 0.116692 18.6723 0 17.5 0C12.8257 0 8.4309 1.82034 5.12562 5.12562C1.82034 8.4309 0 12.8257 0 17.5C0 21.432 1.33514 25.2692 3.76591 28.3454C3.45295 28.8129 3.28472 29.3625 3.28472 29.9379C3.28472 30.7048 3.58353 31.4258 4.12586 31.9679C4.66793 32.5102 5.38891 32.809 6.15582 32.809C6.92272 32.809 7.6437 32.5102 8.18604 31.9679C8.72837 31.4258 9.02691 30.7046 9.02691 29.9377C9.02691 29.171 8.72837 28.4498 8.18604 27.9077C7.6437 27.3654 6.92272 27.0668 6.15582 27.0668ZM7.21912 31.0012C6.93527 31.2854 6.55743 31.4418 6.15582 31.4418C5.7542 31.4418 5.37663 31.2854 5.09251 31.0012C4.80839 30.7171 4.65191 30.3395 4.65191 29.9379C4.65191 29.5361 4.80839 29.1585 5.09251 28.8744C5.37636 28.5902 5.7542 28.434 6.15582 28.434C6.55743 28.434 6.93501 28.5905 7.21912 28.8744C7.50324 29.1585 7.65972 29.5361 7.65972 29.9379C7.65972 30.3395 7.50324 30.7171 7.21912 31.0012Z" fill="#A5E985"/>
<path d="M31.2336 6.65377C31.9767 5.53893 31.8574 4.01472 30.8744 3.03179C30.3321 2.48972 29.6111 2.19092 28.8442 2.19092C28.0773 2.19092 27.3563 2.48972 26.814 3.03179C26.2716 3.57413 25.9731 4.2951 25.9731 5.06201C25.9731 5.82892 26.2716 6.5499 26.814 7.09223C27.3563 7.63457 28.0773 7.93311 28.8442 7.93311C29.3342 7.93311 29.8052 7.81081 30.2231 7.58116C32.4245 10.4034 33.6328 13.9087 33.6328 17.4999C33.6328 26.3957 26.3958 33.6328 17.5 33.6328C16.4292 33.6328 15.3584 33.5273 14.3178 33.319C13.9477 33.245 13.5875 33.4851 13.5133 33.8552C13.4393 34.2256 13.6794 34.5855 14.0495 34.6598C15.1782 34.8854 16.3392 34.9999 17.5 34.9999C22.1743 34.9999 26.5691 33.1796 29.8744 29.8743C33.1797 26.569 35 22.1743 35 17.4999C35 13.5677 33.6646 9.73021 31.2336 6.65377ZM27.7809 6.12559C27.4968 5.84147 27.3403 5.46389 27.3403 5.06201C27.3403 4.6604 27.4968 4.28282 27.7809 3.9987C28.0647 3.71458 28.4426 3.55811 28.8442 3.55811C29.2458 3.55811 29.6237 3.71458 29.9078 3.9987C30.4939 4.5851 30.4939 5.53919 29.9078 6.12559C29.6237 6.40944 29.2458 6.56592 28.8442 6.56592C28.4423 6.56592 28.0647 6.40944 27.7809 6.12559Z" fill="#A5E985"/>
<path d="M14.6791 29.2578C14.6791 29.6354 14.9854 29.9414 15.3627 29.9414H19.637C20.0146 29.9414 20.3206 29.6354 20.3206 29.2578V27.9325C21.2194 27.6906 22.0787 27.3344 22.8862 26.8692L23.8219 27.8049C23.9501 27.9331 24.1239 28.0052 24.3055 28.0052C24.4865 28.0052 24.6606 27.9331 24.7888 27.8046L27.81 24.7813C28.0767 24.5143 28.0767 24.0815 27.81 23.8147L26.8754 22.8801C27.3405 22.0726 27.6967 21.2133 27.9387 20.3145H29.2589C29.6364 20.3145 29.9424 20.0085 29.9424 19.6309V15.3566C29.9424 14.979 29.6364 14.673 29.2589 14.673H27.9384C27.6965 13.7744 27.3405 12.9151 26.8754 12.1076L27.8049 11.1781C27.9331 11.0499 28.0051 10.8758 28.0051 10.6945C28.0049 10.5132 27.9328 10.3391 27.8046 10.2109L24.781 7.18975C24.5143 6.92299 24.0814 6.92299 23.8144 7.19002L22.8862 8.11848C22.0787 7.65331 21.2194 7.2971 20.3206 7.05517V5.74219C20.3206 5.36461 20.0146 5.05859 19.637 5.05859H15.3627C14.9854 5.05859 14.6791 5.36461 14.6791 5.74219V7.05544C13.7805 7.2971 12.9212 7.65331 12.1137 8.11848L11.1853 7.19002C10.9185 6.92326 10.4857 6.92299 10.2186 7.18975L7.19533 10.2112C7.06689 10.3394 6.99479 10.5132 6.99479 10.6945C6.99479 10.8758 7.06689 11.0499 7.19506 11.1781L8.12459 12.1076C7.65942 12.9151 7.30321 13.7741 7.06128 14.673H5.74349C5.36591 14.673 5.0599 14.979 5.0599 15.3563L5.0575 19.6306C5.05723 19.8119 5.12933 19.986 5.2575 20.1142C5.38567 20.2424 5.55951 20.3145 5.74109 20.3145H7.06128C7.30321 21.2133 7.65942 22.0726 8.12459 22.8801L7.18999 23.8147C6.92323 24.0815 6.92296 24.5143 7.18999 24.7813L10.2112 27.8046C10.3393 27.9328 10.5132 28.0052 10.6945 28.0052H10.6947C10.8761 28.0052 11.0499 27.9331 11.1781 27.8049L12.1135 26.8692C12.9212 27.3344 13.7805 27.6906 14.6791 27.9325V29.2578ZM12.3816 25.4316C12.1111 25.2567 11.7551 25.2946 11.5271 25.5223L10.6947 26.3547L8.63995 24.2983L9.47148 23.4665C9.69926 23.2387 9.73718 22.8828 9.56227 22.6123C8.9425 21.6531 8.50671 20.6018 8.26745 19.4872C8.19962 19.1724 7.92138 18.9473 7.59908 18.9473H6.42495L6.42655 16.0402H7.59908C7.92138 16.0402 8.19962 15.8153 8.26745 15.5002C8.50671 14.3859 8.9425 13.3346 9.56227 12.3755C9.73718 12.1049 9.69926 11.749 9.47148 11.5212L8.64529 10.6948L10.7017 8.63998L11.5271 9.46564C11.7551 9.69341 12.1108 9.73106 12.3816 9.55643C13.3405 8.93665 14.3918 8.50086 15.5063 8.2616C15.8212 8.19378 16.0463 7.91527 16.0463 7.59323V6.42578H18.9534V7.59296C18.9534 7.91527 19.1782 8.19378 19.4933 8.26134C20.6077 8.50086 21.6592 8.93639 22.6181 9.55616C22.8886 9.73106 23.2446 9.69341 23.4723 9.46537L24.298 8.63998L26.3544 10.6948L25.5282 11.521C25.3001 11.749 25.2625 12.1049 25.4374 12.3755C26.0572 13.3346 26.4927 14.3859 26.7322 15.5002C26.7998 15.8153 27.0783 16.0402 27.4006 16.0402H28.5753V18.9473H27.4006C27.0783 18.9473 26.8 19.1724 26.7322 19.4872C26.493 20.6015 26.0572 21.6531 25.4374 22.612C25.2625 22.8828 25.3004 23.2387 25.5282 23.4665L26.3597 24.298L24.3049 26.3544L23.4726 25.5223C23.2446 25.2943 22.8886 25.2567 22.6181 25.4316C21.6589 26.0513 20.6077 26.4869 19.4933 26.7264C19.1782 26.7942 18.9534 27.0724 18.9534 27.3948V28.5742H16.0463V27.3948C16.0463 27.0727 15.8212 26.7942 15.5063 26.7264C14.392 26.4871 13.3407 26.0513 12.3816 25.4316Z" fill="#A5E985"/>
<path d="M23.1485 17.5C23.1485 14.3854 20.6146 11.8516 17.5 11.8516C14.3854 11.8516 11.8516 14.3854 11.8516 17.5C11.8516 20.6146 14.3854 23.1485 17.5 23.1485C20.6146 23.1485 23.1485 20.6146 23.1485 17.5ZM13.2188 17.5C13.2188 15.1392 15.1392 13.2188 17.5 13.2188C19.8608 13.2188 21.7813 15.1395 21.7813 17.5C21.7813 19.8606 19.8608 21.7813 17.5 21.7813C15.1392 21.7813 13.2188 19.8608 13.2188 17.5Z" fill="#A5E985"/>
<path d="M23.7944 2.5854C23.9744 2.5854 24.1506 2.51223 24.2778 2.38512C24.4049 2.25722 24.478 2.08098 24.478 1.901C24.478 1.72209 24.4051 1.54559 24.2778 1.41768C24.1506 1.29057 23.9744 1.21741 23.7944 1.21741C23.6139 1.21741 23.4385 1.29057 23.3114 1.41768C23.184 1.54559 23.1108 1.72129 23.1108 1.901C23.1108 2.08151 23.184 2.25722 23.3114 2.38512C23.4385 2.51223 23.6139 2.5854 23.7944 2.5854Z" fill="#A5E985"/>
<path d="M11.2355 32.4269C11.0558 32.4269 10.8793 32.5 10.7522 32.6272C10.625 32.7543 10.5519 32.9308 10.5519 33.1105C10.5519 33.291 10.625 33.4667 10.7522 33.5938C10.8793 33.7209 11.0558 33.7941 11.2355 33.7941C11.4152 33.7941 11.5917 33.7209 11.7188 33.5938C11.8459 33.4667 11.9191 33.2902 11.9191 33.1105C11.9191 32.9308 11.8459 32.7543 11.7188 32.6272C11.5917 32.5 11.4152 32.4269 11.2355 32.4269Z" fill="#A5E985"/>
</g>
<defs>
<clipPath id="clip0">
<rect width="35" height="35" fill="white"/>
</clipPath>
</defs>
</svg>
