<svg width="25" height="25" viewBox="0 0 25 25" fill="none" xmlns="http://www.w3.org/2000/svg">
<g clip-path="url(#clip0)">
<path d="M6.91153 0.159361C6.6957 -0.0491249 6.35173 -0.0431144 6.14324 0.172707C5.9399 0.383281 5.9399 0.717072 6.14324 0.927596L17.7119 12.4973L6.14217 24.0659C5.92635 24.2744 5.92039 24.6183 6.12882 24.8342C6.33731 25.05 6.68124 25.0559 6.89711 24.8475C6.90164 24.8431 6.90608 24.8387 6.91046 24.8342L18.8637 12.8809C19.0758 12.6687 19.0758 12.3248 18.8637 12.1126L6.91153 0.159361Z" fill="#F44336"/>
<path d="M6.52674 24.9939C6.22667 24.9945 5.98298 24.7516 5.98242 24.4515C5.98217 24.3069 6.03963 24.1681 6.14206 24.0659L17.7117 12.4973L6.14206 0.928701C5.9296 0.716241 5.9296 0.371804 6.14206 0.159344C6.35452 -0.0531148 6.69896 -0.0531148 6.91142 0.159344L18.8647 12.1126C19.0768 12.3248 19.0768 12.6687 18.8647 12.8809L6.91142 24.8342C6.80954 24.9364 6.67109 24.9939 6.52674 24.9939Z" fill="white"/>
</g>
<defs>
<clipPath id="clip0">
<rect width="25" height="25" fill="white"/>
</clipPath>
</defs>
</svg>
