<svg width="23" height="23" viewBox="0 0 23 23" fill="none" xmlns="http://www.w3.org/2000/svg">
<path d="M22.374 16.8797L19.1643 13.67C18.018 12.5236 16.0692 12.9822 15.6107 14.4724C15.2668 15.5041 14.1205 16.0773 13.0888 15.848C10.7961 15.2748 7.70102 12.2944 7.12786 9.88708C6.78396 8.85534 7.47176 7.70901 8.50345 7.36516C9.99368 6.90663 10.4522 4.95787 9.30588 3.81154L6.09616 0.601822C5.1791 -0.200607 3.80351 -0.200607 3.00108 0.601822L0.823054 2.77985C-1.35497 5.0725 1.05232 11.148 6.44006 16.5358C11.8278 21.9235 17.9033 24.4455 20.196 22.1528L22.374 19.9748C23.1765 19.0577 23.1765 17.6821 22.374 16.8797Z" fill="#A5E985"/>
</svg>
