<svg width="25" height="23" viewBox="0 0 25 23" fill="none" xmlns="http://www.w3.org/2000/svg">
<path d="M24.6133 1.48343C24.3079 1.10997 23.8505 0.904358 23.3252 0.904358C23.0397 0.904358 22.7372 0.964439 22.4263 1.08327L1.26426 9.16146C0.141214 9.59004 -0.0100392 10.2332 -0.000311715 10.5784C0.00941575 10.9237 0.196908 11.5573 1.34246 11.9218C1.34933 11.9239 1.35619 11.926 1.36306 11.9279L5.75263 13.1841L8.12652 19.9723C8.4502 20.8978 9.17671 21.4726 10.0228 21.4726C10.5563 21.4726 11.081 21.2491 11.5403 20.8264L14.2554 18.3265L18.1935 21.4974C18.1939 21.4978 18.1945 21.498 18.1948 21.4984L18.2322 21.5285C18.2357 21.5312 18.2393 21.534 18.2427 21.5367C18.6805 21.8762 19.1582 22.0555 19.625 22.0557H19.6252C20.5371 22.0557 21.2632 21.3807 21.4747 20.3362L24.9421 3.21511C25.0813 2.52789 24.9646 1.91296 24.6133 1.48343ZM7.2211 12.9454L15.6899 8.61901L10.4167 14.2222C10.3303 14.314 10.269 14.4263 10.2389 14.5486L9.2221 18.6673L7.2211 12.9454ZM10.5479 19.7488C10.5128 19.781 10.4775 19.8098 10.4422 19.8363L11.3856 16.0155L13.1016 17.3974L10.5479 19.7488ZM23.5064 2.92424L20.0391 20.0456C20.0057 20.2094 19.8991 20.5907 19.625 20.5907C19.4895 20.5907 19.3194 20.5169 19.1453 20.3828L14.6828 16.7897C14.6823 16.7891 14.6815 16.7886 14.6807 16.7882L12.0255 14.65L19.6513 6.54706C19.8954 6.28766 19.9176 5.89036 19.7037 5.6054C19.4897 5.32044 19.102 5.2308 18.7848 5.39292L6.24244 11.8005L1.79317 10.5275L22.9487 2.45179C23.1274 2.38351 23.2522 2.3692 23.3252 2.3692C23.37 2.3692 23.4498 2.37454 23.4793 2.41097C23.5182 2.45847 23.5678 2.6204 23.5064 2.92424Z" fill="white"/>
</svg>
