<svg width="25" height="25" viewBox="0 0 25 25" fill="none" xmlns="http://www.w3.org/2000/svg">
<path d="M12.5 0C5.60721 0 0 5.60721 0 12.5C0 14.8514 0.653365 17.1341 1.89279 19.1163C1.39904 20.8462 0.507212 24.1183 0.497596 24.1524C0.451442 24.3216 0.500961 24.5024 0.627404 24.624C0.753846 24.7457 0.936538 24.7889 1.10288 24.738L6.05769 23.2139C7.99856 24.3832 10.2212 25 12.5 25C19.3928 25 25 19.3928 25 12.5C25 5.60721 19.3928 0 12.5 0ZM12.5 24.0385C10.3274 24.0385 8.21106 23.4312 6.37933 22.2832C6.30192 22.2346 6.21298 22.2101 6.12404 22.2101C6.07644 22.2101 6.02885 22.2173 5.98269 22.2313L1.65625 23.563C1.97404 22.4029 2.54519 20.3279 2.87644 19.1736C2.9149 19.0399 2.89327 18.8957 2.81779 18.7788C1.60337 16.9101 0.961538 14.7389 0.961538 12.5C0.961538 6.13798 6.13798 0.961538 12.5 0.961538C18.862 0.961538 24.0385 6.13798 24.0385 12.5C24.0385 18.862 18.862 24.0385 12.5 24.0385Z" fill="white"/>
<path d="M20.6658 15.4452C19.7783 14.9524 19.0225 14.4582 18.4711 14.0976C18.0499 13.8226 17.7456 13.624 17.5225 13.512C16.8989 13.201 16.4263 13.4207 16.2465 13.6024C16.2239 13.625 16.2037 13.6495 16.1864 13.6755C15.5388 14.6471 14.6932 15.5764 14.4456 15.6264C14.1595 15.5817 12.8206 14.8207 11.4898 13.7125C10.1311 12.5803 9.27634 11.4962 9.15086 10.7577C10.0225 9.86058 10.3364 9.29616 10.3364 8.65385C10.3364 7.99183 8.79221 5.22789 8.51288 4.94856C8.23259 4.66876 7.60134 4.62501 6.63644 4.81731C6.54365 4.83606 6.45807 4.88174 6.39076 4.94856C6.27394 5.06539 3.54028 7.85241 4.83932 11.2303C6.26528 14.9375 9.92538 19.2466 14.5917 19.9466C15.122 20.026 15.6191 20.0654 16.0845 20.0654C18.8297 20.0654 20.4499 18.6841 20.9061 15.9442C20.9403 15.7438 20.8436 15.5438 20.6658 15.4452ZM14.7345 18.9957C9.7999 18.2558 6.69173 13.3668 5.73692 10.8851C4.7898 8.42356 6.53644 6.22885 6.9749 5.7327C7.33163 5.67212 7.70711 5.64664 7.86384 5.67116C8.19125 6.12645 9.3249 8.26827 9.3749 8.65385C9.3749 8.90626 9.29269 9.2577 8.31384 10.237C8.22346 10.3269 8.17298 10.449 8.17298 10.5769C8.17298 13.0942 13.4826 16.5865 14.423 16.5865C15.2408 16.5865 16.3071 15.212 16.9143 14.3164C16.9494 14.3178 17.0086 14.3298 17.0927 14.3721C17.2658 14.4591 17.5658 14.6548 17.9451 14.9029C18.4461 15.2303 19.1114 15.6649 19.897 16.1154C19.5403 17.8317 18.5432 19.5678 14.7345 18.9957Z" fill="white"/>
</svg>
